<svg width="503" height="391" viewBox="0 0 503 391" fill="none" xmlns="http://www.w3.org/2000/svg">
<path fill-rule="evenodd" clip-rule="evenodd" d="M40.344 363.512C42.104 364.696 44.12 365.288 46.392 365.288C48.184 365.288 49.88 364.84 51.48 363.944C53.112 363.048 54.392 361.832 55.32 360.296V364.712C55.32 366.44 54.92 367.88 54.12 369.032C53.352 370.184 52.312 371.032 51 371.576C49.72 372.152 48.312 372.44 46.776 372.44C44.984 372.44 43.288 372.072 41.688 371.336C40.12 370.6 38.84 369.496 37.848 368.024L35.4 370.184C36.584 371.88 38.072 373.224 39.864 374.216C41.656 375.208 43.96 375.704 46.776 375.704C49.144 375.704 51.288 375.272 53.208 374.408C55.16 373.576 56.696 372.344 57.816 370.712C58.968 369.08 59.544 367.08 59.544 364.712V339.944H55.8V344.936C54.744 343.368 53.432 342.072 51.864 341.048C50.328 340.024 48.52 339.512 46.44 339.512C44.168 339.512 42.152 340.104 40.392 341.288C38.632 342.472 37.256 344.056 36.264 346.04C35.304 347.992 34.824 350.152 34.824 352.52C34.824 354.728 35.304 356.808 36.264 358.76C37.256 360.712 38.616 362.296 40.344 363.512ZM51.096 361.016C50.008 361.56 48.872 361.832 47.688 361.832C46.088 361.832 44.632 361.416 43.32 360.584C42.04 359.72 41.016 358.6 40.248 357.224C39.48 355.816 39.096 354.28 39.096 352.616C39.096 351.048 39.416 349.544 40.056 348.104C40.728 346.664 41.672 345.48 42.888 344.552C44.136 343.624 45.608 343.16 47.304 343.16C48.968 343.16 50.552 343.72 52.056 344.84C53.56 345.928 54.648 347.32 55.32 349.016V356.216C55.096 357.144 54.6 358.04 53.832 358.904C53.096 359.768 52.184 360.472 51.096 361.016Z" fill="#747778"/>
<path d="M73.9931 345.272C75.6251 344.216 77.4971 343.672 79.6091 343.64V339.8C79.4491 339.768 79.2571 339.752 79.0331 339.752H78.2171C76.6491 339.88 75.1451 340.488 73.7051 341.576C72.2971 342.632 71.1611 344.024 70.2971 345.752V339.944H66.3611V365H70.5851V349.544C71.2571 347.72 72.3931 346.296 73.9931 345.272Z" fill="#747778"/>
<path fill-rule="evenodd" clip-rule="evenodd" d="M83.1746 353.624C82.2786 354.776 81.8306 356.152 81.8306 357.752C81.8306 359.192 82.1986 360.504 82.9346 361.688C83.6706 362.84 84.6946 363.768 86.0066 364.472C87.3186 365.144 88.8066 365.48 90.4706 365.48C92.1986 365.48 93.9426 365.096 95.7026 364.328C97.4626 363.56 98.8866 362.472 99.9746 361.064L100.071 362.648C100.135 363.256 100.407 363.832 100.887 364.376C101.399 364.92 102.151 365.192 103.143 365.192C103.335 365.192 103.575 365.176 103.863 365.144C104.183 365.112 104.551 365.064 104.967 365V361.736C104.071 361.704 103.623 361.192 103.623 360.2V349.592C103.623 346.424 102.695 343.96 100.839 342.2C98.9826 340.408 96.4546 339.512 93.2546 339.512C91.4946 339.512 89.7986 339.8 88.1666 340.376C86.5346 340.92 84.9026 341.752 83.2706 342.872L84.8066 345.848C86.2146 344.92 87.5426 344.216 88.7906 343.736C90.0706 343.224 91.3986 342.968 92.7746 342.968C94.8866 342.968 96.5186 343.528 97.6706 344.648C98.8226 345.736 99.3986 347.24 99.3986 349.16V350.984C98.4386 350.632 97.3346 350.376 96.0866 350.216C94.8386 350.024 93.6546 349.928 92.5346 349.928C90.4226 349.928 88.5666 350.248 86.9666 350.888C85.3666 351.528 84.1026 352.44 83.1746 353.624ZM99.0626 358.184C98.8386 358.632 98.5346 359.08 98.1506 359.528C97.4466 360.328 96.5026 361 95.3186 361.544C94.1346 362.056 92.8866 362.312 91.5746 362.312C90.3266 362.312 89.2706 362.072 88.4066 361.592C87.5746 361.112 86.9346 360.504 86.4866 359.768C86.0706 359 85.8626 358.216 85.8626 357.416C85.8626 355.944 86.5186 354.792 87.8306 353.96C89.1746 353.096 90.9186 352.664 93.0626 352.664C95.2386 352.664 97.3506 353.064 99.3986 353.864V356.984C99.3986 357.304 99.2866 357.704 99.0626 358.184Z" fill="#747778"/>
<path fill-rule="evenodd" clip-rule="evenodd" d="M118.393 363.944C119.993 364.968 121.817 365.48 123.865 365.48C126.073 365.48 128.025 364.904 129.721 363.752C131.417 362.568 132.729 360.984 133.657 359C134.617 357.016 135.097 354.84 135.097 352.472C135.097 350.776 134.793 349.16 134.185 347.624C133.609 346.056 132.793 344.664 131.737 343.448C130.681 342.232 129.433 341.272 127.993 340.568C126.553 339.864 124.969 339.512 123.241 339.512C121.353 339.512 119.609 339.992 118.009 340.952C116.409 341.88 115.113 343.112 114.121 344.648V339.944H110.377V375.224H114.601V360.056C115.529 361.624 116.793 362.92 118.393 363.944ZM126.889 360.488C125.673 361.384 124.233 361.832 122.569 361.832C120.873 361.832 119.289 361.272 117.817 360.152C116.377 359 115.305 357.592 114.601 355.928V348.776C114.825 347.752 115.337 346.824 116.137 345.992C116.969 345.128 117.929 344.44 119.017 343.928C120.137 343.416 121.193 343.16 122.185 343.16C123.817 343.16 125.273 343.592 126.553 344.456C127.865 345.288 128.889 346.408 129.625 347.816C130.393 349.224 130.777 350.776 130.777 352.472C130.777 354.04 130.425 355.544 129.721 356.984C129.049 358.424 128.105 359.592 126.889 360.488Z" fill="#747778"/>
<path d="M157.803 365H162.027V350.024C162.027 348.04 161.771 346.264 161.259 344.696C160.779 343.096 159.963 341.832 158.811 340.904C157.659 339.976 156.091 339.512 154.107 339.512C152.123 339.512 150.267 340.04 148.539 341.096C146.843 342.12 145.499 343.528 144.507 345.32V329.96H140.283V365H144.507V349.88C144.891 348.6 145.499 347.48 146.331 346.52C147.163 345.528 148.123 344.744 149.211 344.168C150.331 343.592 151.435 343.304 152.523 343.304C154.219 343.304 155.515 343.944 156.411 345.224C157.339 346.504 157.803 348.424 157.803 350.984V365Z" fill="#747778"/>
<path d="M168.596 329.96V335.24H172.82V329.96H168.596Z" fill="#747778"/>
<path d="M172.82 339.944H168.596V365H172.82V339.944Z" fill="#747778"/>
<path d="M184.122 363.704C186.042 364.888 188.25 365.48 190.746 365.48C193.274 365.48 195.498 364.888 197.418 363.704C199.37 362.52 200.714 361.016 201.45 359.192L197.322 357.944C197.066 358.648 196.586 359.304 195.882 359.912C195.21 360.488 194.41 360.952 193.482 361.304C192.586 361.656 191.642 361.832 190.65 361.832C189.114 361.832 187.706 361.416 186.426 360.584C185.178 359.752 184.17 358.632 183.402 357.224C182.666 355.784 182.298 354.184 182.298 352.424C182.298 350.632 182.666 349.048 183.402 347.672C184.138 346.264 185.13 345.16 186.378 344.36C187.658 343.56 189.066 343.16 190.602 343.16C192.01 343.16 193.29 343.496 194.442 344.168C195.594 344.808 196.49 345.72 197.13 346.904L201.258 345.608C200.362 343.752 198.986 342.28 197.13 341.192C195.306 340.072 193.162 339.512 190.698 339.512C188.17 339.512 185.946 340.104 184.026 341.288C182.106 342.44 180.618 343.992 179.562 345.944C178.506 347.896 177.978 350.056 177.978 352.424C177.978 354.76 178.522 356.92 179.61 358.904C180.698 360.888 182.202 362.488 184.122 363.704Z" fill="#747778"/>
<path fill-rule="evenodd" clip-rule="evenodd" d="M331.784 353.624C330.888 354.776 330.44 356.152 330.44 357.752C330.44 359.192 330.808 360.504 331.544 361.688C332.28 362.84 333.304 363.768 334.616 364.472C335.928 365.144 337.416 365.48 339.08 365.48C340.808 365.48 342.552 365.096 344.312 364.328C346.072 363.56 347.496 362.472 348.584 361.064L348.68 362.648C348.744 363.256 349.016 363.832 349.496 364.376C350.008 364.92 350.76 365.192 351.752 365.192C351.944 365.192 352.184 365.176 352.472 365.144C352.792 365.112 353.16 365.064 353.576 365V361.736C352.68 361.704 352.232 361.192 352.232 360.2V349.592C352.232 346.424 351.304 343.96 349.448 342.2C347.592 340.408 345.064 339.512 341.864 339.512C340.104 339.512 338.408 339.8 336.776 340.376C335.144 340.92 333.512 341.752 331.88 342.872L333.416 345.848C334.824 344.92 336.152 344.216 337.4 343.736C338.68 343.224 340.008 342.968 341.384 342.968C343.496 342.968 345.128 343.528 346.28 344.648C347.432 345.736 348.008 347.24 348.008 349.16V350.984C347.048 350.632 345.944 350.376 344.696 350.216C343.448 350.024 342.264 349.928 341.144 349.928C339.032 349.928 337.176 350.248 335.576 350.888C333.976 351.528 332.712 352.44 331.784 353.624ZM347.672 358.184C347.448 358.632 347.144 359.08 346.76 359.528C346.056 360.328 345.112 361 343.928 361.544C342.744 362.056 341.496 362.312 340.184 362.312C338.936 362.312 337.88 362.072 337.016 361.592C336.184 361.112 335.544 360.504 335.096 359.768C334.68 359 334.472 358.216 334.472 357.416C334.472 355.944 335.128 354.792 336.44 353.96C337.784 353.096 339.528 352.664 341.672 352.664C343.848 352.664 345.96 353.064 348.008 353.864V356.984C348.008 357.304 347.896 357.704 347.672 358.184Z" fill="#747778"/>
<path d="M361.722 364.472C363.546 365.144 365.498 365.48 367.578 365.48C370.522 365.48 372.89 364.824 374.682 363.512C376.474 362.168 377.37 360.312 377.37 357.944C377.37 356.408 376.986 355.208 376.218 354.344C375.45 353.48 374.362 352.776 372.954 352.232C371.578 351.688 369.946 351.144 368.058 350.6C366.202 350.056 364.794 349.528 363.834 349.016C362.874 348.504 362.394 347.656 362.394 346.472C362.394 345.512 362.666 344.776 363.21 344.264C363.754 343.72 364.442 343.352 365.274 343.16C366.106 342.936 366.954 342.824 367.818 342.824C370.698 342.824 373.114 343.832 375.066 345.848L376.986 342.92C374.81 340.648 371.834 339.512 368.058 339.512C365.242 339.512 362.922 340.168 361.098 341.48C359.306 342.76 358.41 344.584 358.41 346.952C358.41 348.904 359.082 350.392 360.426 351.416C361.802 352.408 363.786 353.272 366.378 354.008C367.786 354.392 369.002 354.744 370.026 355.064C371.05 355.352 371.834 355.72 372.378 356.168C372.954 356.616 373.242 357.304 373.242 358.232C373.242 359.512 372.698 360.488 371.61 361.16C370.522 361.8 369.114 362.12 367.386 362.12C365.882 362.12 364.41 361.832 362.97 361.256C361.53 360.68 360.09 359.72 358.65 358.376L357.018 361.352C358.33 362.728 359.898 363.768 361.722 364.472Z" fill="#747778"/>
<path d="M385.16 364.472C386.984 365.144 388.936 365.48 391.016 365.48C393.96 365.48 396.328 364.824 398.12 363.512C399.912 362.168 400.808 360.312 400.808 357.944C400.808 356.408 400.424 355.208 399.656 354.344C398.888 353.48 397.8 352.776 396.392 352.232C395.016 351.688 393.384 351.144 391.496 350.6C389.64 350.056 388.232 349.528 387.272 349.016C386.312 348.504 385.832 347.656 385.832 346.472C385.832 345.512 386.104 344.776 386.648 344.264C387.192 343.72 387.88 343.352 388.712 343.16C389.544 342.936 390.392 342.824 391.256 342.824C394.136 342.824 396.552 343.832 398.504 345.848L400.424 342.92C398.248 340.648 395.272 339.512 391.496 339.512C388.68 339.512 386.36 340.168 384.536 341.48C382.744 342.76 381.848 344.584 381.848 346.952C381.848 348.904 382.52 350.392 383.864 351.416C385.24 352.408 387.224 353.272 389.816 354.008C391.224 354.392 392.44 354.744 393.464 355.064C394.488 355.352 395.272 355.72 395.816 356.168C396.392 356.616 396.68 357.304 396.68 358.232C396.68 359.512 396.136 360.488 395.048 361.16C393.96 361.8 392.552 362.12 390.824 362.12C389.32 362.12 387.848 361.832 386.408 361.256C384.968 360.68 383.528 359.72 382.088 358.376L380.456 361.352C381.768 362.728 383.336 363.768 385.16 364.472Z" fill="#747778"/>
<path fill-rule="evenodd" clip-rule="evenodd" d="M410.325 363.704C412.245 364.888 414.453 365.48 416.949 365.48C419.477 365.48 421.733 364.888 423.717 363.704C425.701 362.52 427.093 361 427.893 359.144L424.245 358.136C423.733 359.384 422.789 360.392 421.413 361.16C420.069 361.928 418.629 362.312 417.093 362.312C415.653 362.312 414.309 361.96 413.061 361.256C411.813 360.52 410.789 359.528 409.989 358.28C409.221 357 408.773 355.544 408.645 353.912H429.429C429.493 353.528 429.525 352.984 429.525 352.28C429.525 350.04 428.997 347.96 427.941 346.04C426.917 344.088 425.461 342.52 423.573 341.336C421.717 340.12 419.525 339.512 416.997 339.512C414.501 339.512 412.277 340.104 410.325 341.288C408.405 342.472 406.901 344.04 405.813 345.992C404.725 347.944 404.181 350.104 404.181 352.472C404.181 354.808 404.725 356.968 405.813 358.952C406.901 360.936 408.405 362.52 410.325 363.704ZM425.589 350.984H408.501C408.629 349.352 409.077 347.912 409.845 346.664C410.645 345.416 411.669 344.44 412.917 343.736C414.165 343.032 415.525 342.68 416.997 342.68C418.501 342.68 419.877 343.032 421.125 343.736C422.373 344.44 423.397 345.416 424.197 346.664C424.997 347.912 425.461 349.352 425.589 350.984Z" fill="#747778"/>
<path d="M444.498 364.712C445.618 364.296 446.434 363.976 446.946 363.752L445.938 360.392C445.714 360.52 445.25 360.728 444.546 361.016C443.842 361.304 443.074 361.448 442.242 361.448C441.506 361.448 440.866 361.24 440.322 360.824C439.778 360.376 439.474 359.704 439.41 358.808V343.256H445.026V339.944H439.41V331.592H435.186V339.944H431.778V343.256H435.186V360.104C435.186 361.896 435.746 363.224 436.866 364.088C437.986 364.92 439.314 365.336 440.85 365.336C442.194 365.336 443.41 365.128 444.498 364.712Z" fill="#747778"/>
<path d="M453.597 364.472C455.421 365.144 457.373 365.48 459.453 365.48C462.397 365.48 464.765 364.824 466.557 363.512C468.349 362.168 469.245 360.312 469.245 357.944C469.245 356.408 468.861 355.208 468.093 354.344C467.325 353.48 466.237 352.776 464.829 352.232C463.453 351.688 461.821 351.144 459.933 350.6C458.077 350.056 456.669 349.528 455.709 349.016C454.749 348.504 454.269 347.656 454.269 346.472C454.269 345.512 454.541 344.776 455.085 344.264C455.629 343.72 456.317 343.352 457.149 343.16C457.981 342.936 458.829 342.824 459.693 342.824C462.573 342.824 464.989 343.832 466.941 345.848L468.861 342.92C466.685 340.648 463.709 339.512 459.933 339.512C457.117 339.512 454.797 340.168 452.973 341.48C451.181 342.76 450.285 344.584 450.285 346.952C450.285 348.904 450.957 350.392 452.301 351.416C453.677 352.408 455.661 353.272 458.253 354.008C459.661 354.392 460.877 354.744 461.901 355.064C462.925 355.352 463.709 355.72 464.253 356.168C464.829 356.616 465.117 357.304 465.117 358.232C465.117 359.512 464.573 360.488 463.485 361.16C462.397 361.8 460.989 362.12 459.261 362.12C457.757 362.12 456.285 361.832 454.845 361.256C453.405 360.68 451.965 359.72 450.525 358.376L448.893 361.352C450.205 362.728 451.773 363.768 453.597 364.472Z" fill="#747778"/>
<g filter="url(#filter0_di)">
<path d="M295.833 342.389L281.368 321.786H266.891L288.92 352.269L295.704 344.035C296.092 343.567 296.139 342.906 295.833 342.389Z" fill="#747778"/>
</g>
<g filter="url(#filter1_d)">
<path d="M302.667 353.987C303.083 353.489 303.112 352.772 302.739 352.242L295.578 342.06C295.884 342.576 295.837 343.237 295.449 343.705L272.1 372.043H287.565L302.667 353.987Z" fill="#747778"/>
</g>
<g filter="url(#filter2_di)">
<path d="M236.09 360.486L250.554 381.089H265.031L243.002 350.607L236.218 358.84C235.83 359.309 235.783 359.969 236.09 360.486Z" fill="#747778"/>
</g>
<g filter="url(#filter3_d)">
<path d="M229.334 349.013C228.917 349.511 228.888 350.228 229.261 350.758L236.422 360.94C236.116 360.424 236.163 359.763 236.551 359.295L259.9 330.957H244.435L229.334 349.013Z" fill="#747778"/>
</g>
<g filter="url(#filter4_d)">
<path fill-rule="evenodd" clip-rule="evenodd" d="M194.995 248.32L217.586 235.294H240.848C250.433 235.294 256.433 224.909 251.658 216.583L251.255 215.882L329.961 170.503L363.524 229.027C368.317 237.383 380.35 237.383 385.143 229.027L497.324 33.417C502.099 25.0909 496.1 14.7059 486.515 14.7059L262.152 14.7059C252.567 14.7059 246.567 25.0909 251.342 33.417L251.986 34.5397L194.995 1.68009C186.691 -3.1077 176.333 2.90767 176.333 12.5183V85.241L139.476 20.9732C134.683 12.6167 122.65 12.6167 117.857 20.9732L5.67561 216.583C0.900586 224.909 6.89992 235.294 16.4849 235.294H176.333V237.482C176.333 247.092 186.691 253.108 194.995 248.32ZM191.339 241.946L202.875 235.294H183.667V237.482C183.667 241.448 187.933 243.909 191.339 241.946ZM183.667 227.941H215.628L241.243 213.173L183.667 112.778L183.667 227.941ZM245.3 220.248L244.898 219.547L230.339 227.941H240.848C244.804 227.941 247.259 223.663 245.3 220.248ZM183.667 98.028L247.6 209.507L326.305 164.128L259.254 47.2118L191.339 8.05432C187.933 6.0906 183.667 8.55165 183.667 12.5183V98.028ZM369.881 225.361L336.318 166.837L390.083 135.838C398.417 131.033 398.417 118.967 390.083 114.162L264.624 41.8265L257.7 29.7516C255.741 26.3366 258.196 22.0588 262.152 22.0588L486.515 22.0588C490.471 22.0588 492.926 26.3367 490.967 29.7517L378.785 225.361C376.813 228.801 371.854 228.801 369.881 225.361ZM386.427 120.536L271.892 54.4986L332.662 160.463L386.427 129.464C389.858 127.486 389.858 122.514 386.427 120.536ZM133.119 24.6386L176.333 99.9914L176.333 227.941L16.4849 227.941C12.5288 227.941 10.0744 223.663 12.0328 220.248L124.215 24.6386C126.187 21.1988 131.146 21.1989 133.119 24.6386Z" fill="#747778"/>
<path fill-rule="evenodd" clip-rule="evenodd" d="M323 216.912C323 227.064 314.792 235.294 304.667 235.294C294.541 235.294 286.333 227.064 286.333 216.912C286.333 206.759 294.541 198.529 304.667 198.529C314.792 198.529 323 206.759 323 216.912ZM315.667 216.912C315.667 223.003 310.742 227.941 304.667 227.941C298.592 227.941 293.667 223.003 293.667 216.912C293.667 210.82 298.592 205.882 304.667 205.882C310.742 205.882 315.667 210.82 315.667 216.912Z" fill="#747778"/>
</g>
<defs>
<filter id="filter0_di" x="260.891" y="309.786" width="39.1422" height="50.4824" filterUnits="userSpaceOnUse" color-interpolation-filters="sRGB">
<feFlood flood-opacity="0" result="BackgroundImageFix"/>
<feColorMatrix in="SourceAlpha" type="matrix" values="0 0 0 0 0 0 0 0 0 0 0 0 0 0 0 0 0 0 127 0"/>
<feOffset dy="4"/>
<feGaussianBlur stdDeviation="2"/>
<feColorMatrix type="matrix" values="0 0 0 0 0 0 0 0 0 0 0 0 0 0 0 0 0 0 0.25 0"/>
<feBlend mode="normal" in2="BackgroundImageFix" result="effect1_dropShadow"/>
<feBlend mode="normal" in="SourceGraphic" in2="effect1_dropShadow" result="shape"/>
<feColorMatrix in="SourceAlpha" type="matrix" values="0 0 0 0 0 0 0 0 0 0 0 0 0 0 0 0 0 0 127 0" result="hardAlpha"/>
<feOffset dx="-6" dy="-12"/>
<feGaussianBlur stdDeviation="8"/>
<feComposite in2="hardAlpha" operator="arithmetic" k2="-1" k3="1"/>
<feColorMatrix type="matrix" values="0 0 0 0 0.0666667 0 0 0 0 0.0666667 0 0 0 0 0.0666667 0 0 0 0.3 0"/>
<feBlend mode="hard-light" in2="shape" result="effect2_innerShadow"/>
</filter>
<filter id="filter1_d" x="263.1" y="336.06" width="54.9002" height="53.9838" filterUnits="userSpaceOnUse" color-interpolation-filters="sRGB">
<feFlood flood-opacity="0" result="BackgroundImageFix"/>
<feColorMatrix in="SourceAlpha" type="matrix" values="0 0 0 0 0 0 0 0 0 0 0 0 0 0 0 0 0 0 127 0"/>
<feOffset dx="3" dy="6"/>
<feGaussianBlur stdDeviation="6"/>
<feColorMatrix type="matrix" values="0 0 0 0 0 0 0 0 0 0 0 0 0 0 0 0 0 0 0.35 0"/>
<feBlend mode="normal" in2="BackgroundImageFix" result="effect1_dropShadow"/>
<feBlend mode="normal" in="SourceGraphic" in2="effect1_dropShadow" result="shape"/>
</filter>
<filter id="filter2_di" x="231.889" y="350.607" width="39.1422" height="42.4824" filterUnits="userSpaceOnUse" color-interpolation-filters="sRGB">
<feFlood flood-opacity="0" result="BackgroundImageFix"/>
<feColorMatrix in="SourceAlpha" type="matrix" values="0 0 0 0 0 0 0 0 0 0 0 0 0 0 0 0 0 0 127 0"/>
<feOffset dy="4"/>
<feGaussianBlur stdDeviation="2"/>
<feColorMatrix type="matrix" values="0 0 0 0 0 0 0 0 0 0 0 0 0 0 0 0 0 0 0.25 0"/>
<feBlend mode="normal" in2="BackgroundImageFix" result="effect1_dropShadow"/>
<feBlend mode="normal" in="SourceGraphic" in2="effect1_dropShadow" result="shape"/>
<feColorMatrix in="SourceAlpha" type="matrix" values="0 0 0 0 0 0 0 0 0 0 0 0 0 0 0 0 0 0 127 0" result="hardAlpha"/>
<feOffset dx="6" dy="12"/>
<feGaussianBlur stdDeviation="8"/>
<feComposite in2="hardAlpha" operator="arithmetic" k2="-1" k3="1"/>
<feColorMatrix type="matrix" values="0 0 0 0 0.0666667 0 0 0 0 0.0666667 0 0 0 0 0.0666667 0 0 0 0.3 0"/>
<feBlend mode="hard-light" in2="shape" result="effect2_innerShadow"/>
</filter>
<filter id="filter3_d" x="220" y="324.957" width="54.9002" height="53.9838" filterUnits="userSpaceOnUse" color-interpolation-filters="sRGB">
<feFlood flood-opacity="0" result="BackgroundImageFix"/>
<feColorMatrix in="SourceAlpha" type="matrix" values="0 0 0 0 0 0 0 0 0 0 0 0 0 0 0 0 0 0 127 0"/>
<feOffset dx="3" dy="6"/>
<feGaussianBlur stdDeviation="6"/>
<feColorMatrix type="matrix" values="0 0 0 0 0 0 0 0 0 0 0 0 0 0 0 0 0 0 0.35 0"/>
<feBlend mode="normal" in2="BackgroundImageFix" result="effect1_dropShadow"/>
<feBlend mode="normal" in="SourceGraphic" in2="effect1_dropShadow" result="shape"/>
</filter>
<filter id="filter4_d" x="0" y="0" width="503" height="258" filterUnits="userSpaceOnUse" color-interpolation-filters="sRGB">
<feFlood flood-opacity="0" result="BackgroundImageFix"/>
<feColorMatrix in="SourceAlpha" type="matrix" values="0 0 0 0 0 0 0 0 0 0 0 0 0 0 0 0 0 0 127 0"/>
<feOffset dy="4"/>
<feGaussianBlur stdDeviation="2"/>
<feColorMatrix type="matrix" values="0 0 0 0 0 0 0 0 0 0 0 0 0 0 0 0 0 0 0.25 0"/>
<feBlend mode="normal" in2="BackgroundImageFix" result="effect1_dropShadow"/>
<feBlend mode="normal" in="SourceGraphic" in2="effect1_dropShadow" result="shape"/>
</filter>
</defs>
</svg>
