<svg width="1280" height="640" viewBox="0 0 1280 640" fill="none" xmlns="http://www.w3.org/2000/svg">
<g clip-path="url(#clip0_104_99)">
<g filter="url(#filter0_di_104_99)">
<path d="M646.877 67.8429C645.119 69.6003 645.119 72.4495 646.877 74.2069C648.634 75.9642 651.483 75.9642 653.241 74.2069L717.587 9.86017C719.345 8.10281 719.345 5.25357 717.587 3.49621C715.83 1.73885 712.981 1.73885 711.223 3.49621L646.877 67.8429Z" fill="url(#paint0_linear_104_99)"/>
<path d="M663.14 83.3993C661.383 81.6419 661.383 78.7927 663.14 77.0353L736.679 3.49621C738.437 1.73885 741.286 1.73885 743.043 3.49621C744.801 5.25357 744.801 8.10281 743.043 9.86017L669.504 83.3993C667.747 85.1566 664.898 85.1566 663.14 83.3993Z" fill="url(#paint1_linear_104_99)"/>
<path d="M3.40945 76.3283C1.65209 78.0856 1.65209 80.9349 3.40945 82.6922C5.1668 84.4496 8.01605 84.4496 9.77341 82.6922L82.6054 9.86024C84.3628 8.10288 84.3628 5.25364 82.6054 3.49628C80.848 1.73892 77.9988 1.73892 76.2414 3.49628L3.40945 76.3283Z" fill="url(#paint2_linear_104_99)"/>
<path d="M133.517 3.4963C131.76 1.73894 128.91 1.73894 127.153 3.49629L3.40945 127.24C1.65209 128.997 1.65209 131.847 3.40945 133.604C5.1668 135.361 8.01604 135.361 9.7734 133.604L133.517 9.86026C135.274 8.1029 135.274 5.25366 133.517 3.4963Z" fill="url(#paint3_linear_104_99)"/>
<path d="M45.8358 8.44611C44.0784 10.2035 44.0784 13.0527 45.8358 14.8101C47.5931 16.5674 50.4424 16.5674 52.1997 14.8101L57.1495 9.86032C58.9068 8.10296 58.9068 5.25372 57.1495 3.49636C55.3921 1.739 52.5429 1.739 50.7855 3.49636L45.8358 8.44611Z" fill="url(#paint4_linear_104_99)"/>
<path d="M25.3297 3.49636C27.087 1.739 29.9363 1.739 31.6936 3.49636C33.451 5.25372 33.451 8.10296 31.6936 9.86032L9.77341 31.7805C8.01605 33.5379 5.1668 33.5379 3.40945 31.7805C1.65209 30.0232 1.65209 27.1739 3.40945 25.4166L25.3297 3.49636Z" fill="url(#paint5_linear_104_99)"/>
<path d="M3.40942 178.152C1.65206 179.909 1.65206 182.758 3.40942 184.516C5.16678 186.273 8.01603 186.273 9.77338 184.516L119.375 74.9141C121.132 73.1567 121.132 70.3075 119.375 68.5501C117.618 66.7927 114.768 66.7927 113.011 68.5501L3.40942 178.152Z" fill="url(#paint6_linear_104_99)"/>
<path d="M3.40945 108.148C1.65209 106.391 1.65209 103.541 3.40945 101.784L16.1374 89.0562C17.8947 87.2988 20.744 87.2988 22.5013 89.0562C24.2587 90.8136 24.2587 93.6628 22.5013 95.4202L9.77341 108.148C8.01605 109.905 5.1668 109.905 3.40945 108.148Z" fill="url(#paint7_linear_104_99)"/>
<path d="M108.061 3.49638C106.304 1.73902 103.455 1.73903 101.697 3.49639L28.8653 76.3283C27.1079 78.0856 27.1079 80.9349 28.8653 82.6922C30.6226 84.4496 33.4719 84.4496 35.2293 82.6922L108.061 9.86034C109.819 8.10299 109.819 5.25374 108.061 3.49638Z" fill="url(#paint8_linear_104_99)"/>
<path d="M120.082 36.0232C118.325 37.7806 118.325 40.6298 120.082 42.3871C121.839 44.1445 124.689 44.1445 126.446 42.3871L158.973 9.86026C160.73 8.1029 160.73 5.25366 158.973 3.4963C157.216 1.73894 154.366 1.73894 152.609 3.4963L120.082 36.0232Z" fill="url(#paint9_linear_104_99)"/>
<path d="M3.40945 57.2364C1.65209 55.479 1.65209 52.6298 3.40944 50.8724L33.1078 21.174C34.8652 19.4167 37.7144 19.4167 39.4718 21.174C41.2292 22.9314 41.2292 25.7806 39.4718 27.538L9.77341 57.2364C8.01605 58.9938 5.1668 58.9938 3.40945 57.2364Z" fill="url(#paint10_linear_104_99)"/>
<path d="M184.429 3.4963C186.186 5.25366 186.186 8.1029 184.429 9.86026L161.801 32.4877C160.044 34.245 157.195 34.245 155.437 32.4877C153.68 30.7303 153.68 27.8811 155.437 26.1237L178.065 3.4963C179.822 1.73894 182.671 1.73894 184.429 3.4963Z" fill="url(#paint11_linear_104_99)"/>
<path d="M125.739 62.1861C123.982 60.4288 123.982 57.5795 125.739 55.8222L142.709 38.8516C144.467 37.0943 147.316 37.0943 149.073 38.8516C150.831 40.609 150.831 43.4582 149.073 45.2156L132.103 62.1861C130.346 63.9435 127.496 63.9435 125.739 62.1861Z" fill="url(#paint12_linear_104_99)"/>
<path d="M65.6348 166.838C67.3922 165.081 70.2414 165.081 71.9988 166.838C73.7562 168.595 73.7562 171.445 71.9988 173.202L9.77338 235.427C8.01602 237.185 5.16678 237.185 3.40942 235.427C1.65206 233.67 1.65206 230.821 3.40942 229.063L65.6348 166.838Z" fill="url(#paint13_linear_104_99)"/>
<path d="M3.40942 286.339C1.65206 284.582 1.65207 281.732 3.40943 279.975L264.332 19.0526C266.089 17.2953 268.938 17.2953 270.696 19.0526C272.453 20.81 272.453 23.6593 270.696 25.4166L9.77338 286.339C8.01603 288.096 5.16678 288.096 3.40942 286.339Z" fill="url(#paint14_linear_104_99)"/>
<path d="M279.888 3.4963C281.646 1.73894 284.495 1.73894 286.252 3.4963C288.009 5.25366 288.009 8.1029 286.252 9.86026L283.424 12.6887C281.666 14.446 278.817 14.446 277.06 12.6887C275.302 10.9313 275.302 8.08208 277.06 6.32472L279.888 3.4963Z" fill="url(#paint15_linear_104_99)"/>
<path d="M3.40942 260.883C1.65206 259.126 1.65207 256.277 3.40943 254.519L45.1287 212.8C46.8861 211.043 49.7353 211.043 51.4927 212.8C53.2501 214.557 53.2501 217.406 51.4927 219.164L9.77338 260.883C8.01603 262.641 5.16678 262.641 3.40942 260.883Z" fill="url(#paint16_linear_104_99)"/>
<path d="M189.378 68.5501C191.136 66.7928 193.985 66.7928 195.742 68.5501C197.5 70.3075 197.5 73.1567 195.742 74.9141L64.2206 206.436C62.4633 208.193 59.614 208.193 57.8567 206.436C56.0993 204.679 56.0993 201.829 57.8567 200.072L189.378 68.5501Z" fill="url(#paint17_linear_104_99)"/>
<path d="M235.34 3.4963C233.583 1.73894 230.734 1.73894 228.976 3.4963L154.73 77.7425C152.973 79.4998 152.973 82.3491 154.73 84.1064C156.488 85.8638 159.337 85.8638 161.094 84.1064L235.34 9.86026C237.098 8.1029 237.098 5.25366 235.34 3.4963Z" fill="url(#paint18_linear_104_99)"/>
<path d="M202.106 55.8222C200.349 57.5796 200.349 60.4288 202.106 62.1862C203.864 63.9435 206.713 63.9435 208.47 62.1862L260.796 9.86026C262.554 8.1029 262.554 5.25366 260.796 3.4963C259.039 1.73894 256.19 1.73894 254.432 3.4963L202.106 55.8222Z" fill="url(#paint19_linear_104_99)"/>
<path d="M295.445 70.6714C293.687 68.9141 293.687 66.0648 295.445 64.3075L356.256 3.4963C358.013 1.73894 360.862 1.73894 362.62 3.4963C364.377 5.25366 364.377 8.1029 362.62 9.86026L301.809 70.6714C300.051 72.4288 297.202 72.4288 295.445 70.6714Z" fill="url(#paint20_linear_104_99)"/>
<path d="M3.40942 381.798C1.65206 383.556 1.65206 386.405 3.40942 388.162C5.16678 389.92 8.01603 389.92 9.77338 388.162L388.076 9.86026C389.833 8.1029 389.833 5.25366 388.076 3.4963C386.318 1.73894 383.469 1.73894 381.712 3.4963L3.40942 381.798Z" fill="url(#paint21_linear_104_99)"/>
<path d="M424.138 18.3455C422.381 16.5882 419.531 16.5882 417.774 18.3455L69.1704 366.949C67.413 368.707 67.413 371.556 69.1704 373.313C70.9277 375.07 73.7769 375.071 75.5343 373.313L424.138 24.7095C425.895 22.9521 425.895 20.1029 424.138 18.3455Z" fill="url(#paint22_linear_104_99)"/>
<path d="M3.40942 407.254C1.65206 409.012 1.65206 411.861 3.40942 413.618C5.16678 415.376 8.01603 415.376 9.77338 413.618L71.2917 352.1C73.049 350.343 73.049 347.493 71.2917 345.736C69.5343 343.979 66.6851 343.979 64.9277 345.736L3.40942 407.254Z" fill="url(#paint23_linear_104_99)"/>
<path d="M56.4424 309.674C54.6851 307.916 54.6851 305.067 56.4424 303.31L75.5343 284.218C77.2917 282.46 80.1409 282.46 81.8983 284.218C83.6556 285.975 83.6556 288.824 81.8983 290.582L62.8064 309.674C61.049 311.431 58.1998 311.431 56.4424 309.674Z" fill="url(#paint24_linear_104_99)"/>
<path d="M107.354 48.7511C109.112 46.9938 111.961 46.9938 113.718 48.7511C115.475 50.5085 115.475 53.3577 113.718 55.1151L9.77341 159.06C8.01605 160.817 5.1668 160.817 3.40945 159.06C1.65209 157.302 1.65209 154.453 3.40945 152.696L107.354 48.7511Z" fill="url(#paint25_linear_104_99)"/>
<path d="M3.40942 362.707C1.65206 360.949 1.65206 358.1 3.40942 356.343L17.5516 342.2C19.3089 340.443 22.1582 340.443 23.9155 342.2C25.6729 343.958 25.6729 346.807 23.9155 348.564L9.77338 362.707C8.01603 364.464 5.16678 364.464 3.40942 362.707Z" fill="url(#paint26_linear_104_99)"/>
<path d="M52.1998 282.096C53.9571 280.339 56.8064 280.339 58.5638 282.096C60.3211 283.854 60.3211 286.703 58.5638 288.46L9.77338 337.251C8.01602 339.008 5.16678 339.008 3.40942 337.251C1.65206 335.493 1.65206 332.644 3.40942 330.887L52.1998 282.096Z" fill="url(#paint27_linear_104_99)"/>
<path d="M3.40942 311.795C1.65206 310.038 1.65206 307.188 3.40942 305.431L23.2084 285.632C24.9658 283.875 27.815 283.875 29.5724 285.632C31.3297 287.389 31.3297 290.238 29.5724 291.996L9.77338 311.795C8.01603 313.552 5.16678 313.552 3.40942 311.795Z" fill="url(#paint28_linear_104_99)"/>
<path d="M438.987 3.4963C440.745 5.25366 440.745 8.1029 438.987 9.86026L436.866 11.9816C435.109 13.7389 432.259 13.7389 430.502 11.9816C428.745 10.2242 428.745 7.37498 430.502 5.61762L432.623 3.4963C434.381 1.73894 437.23 1.73894 438.987 3.4963Z" fill="url(#paint29_linear_104_99)"/>
<path d="M3.40942 439.074C1.65206 437.317 1.65206 434.467 3.40942 432.71L56.4424 379.677C58.1998 377.92 61.049 377.92 62.8064 379.677C64.5638 381.434 64.5638 384.284 62.8064 386.041L9.77338 439.074C8.01603 440.831 5.16678 440.831 3.40942 439.074Z" fill="url(#paint30_linear_104_99)"/>
<path d="M30.2795 329.473C28.5221 331.23 28.5221 334.079 30.2795 335.836C32.0368 337.594 34.8861 337.594 36.6434 335.836L50.0785 322.401C51.8358 320.644 51.8358 317.795 50.0785 316.038C48.3211 314.28 45.4719 314.28 43.7145 316.038L30.2795 329.473Z" fill="url(#paint31_linear_104_99)"/>
<path d="M413.531 3.4963C411.774 1.73894 408.925 1.73894 407.167 3.4963L332.214 78.4496C330.457 80.207 330.457 83.0562 332.214 84.8136C333.971 86.5709 336.821 86.5709 338.578 84.8136L413.531 9.86026C415.289 8.1029 415.289 5.25366 413.531 3.4963Z" fill="url(#paint32_linear_104_99)"/>
<path d="M23.9155 437.66C25.6729 435.902 28.5221 435.902 30.2795 437.66C32.0368 439.417 32.0368 442.266 30.2795 444.024L9.77339 464.53C8.01603 466.287 5.16678 466.287 3.40942 464.53C1.65206 462.773 1.65206 459.923 3.40942 458.166L23.9155 437.66Z" fill="url(#paint33_linear_104_99)"/>
<path d="M36.6434 431.296C34.8861 429.539 34.8861 426.689 36.6434 424.932L45.8358 415.74C47.5932 413.982 50.4424 413.982 52.1998 415.74C53.9571 417.497 53.9571 420.346 52.1998 422.104L43.0074 431.296C41.25 433.053 38.4008 433.053 36.6434 431.296Z" fill="url(#paint34_linear_104_99)"/>
<path d="M58.5638 403.012C56.8064 404.769 56.8064 407.618 58.5638 409.376C60.3211 411.133 63.1704 411.133 64.9277 409.376L464.443 9.86027C466.2 8.10291 466.2 5.25366 464.443 3.4963C462.686 1.73894 459.836 1.73894 458.079 3.4963L58.5638 403.012Z" fill="url(#paint35_linear_104_99)"/>
<path d="M540.811 3.4963C539.053 1.73894 536.204 1.73894 534.447 3.4963L471.161 66.7824C469.403 68.5397 469.403 71.389 471.161 73.1463C472.918 74.9037 475.767 74.9037 477.525 73.1463L540.811 9.86026C542.568 8.1029 542.568 5.25366 540.811 3.4963Z" fill="url(#paint36_linear_104_99)"/>
<path d="M521.719 67.1359C519.961 68.8933 519.961 71.7425 521.719 73.4999C523.476 75.2572 526.325 75.2572 528.083 73.4999L591.722 9.86026C593.48 8.1029 593.48 5.25366 591.722 3.4963C589.965 1.73894 587.116 1.73894 585.358 3.4963L521.719 67.1359Z" fill="url(#paint37_linear_104_99)"/>
<path d="M33.108 638.478C31.3506 636.721 31.3506 633.871 33.108 632.114L59.2709 605.951C61.0283 604.194 63.8775 604.194 65.6349 605.951C67.3923 607.709 67.3923 610.558 65.6349 612.315L39.472 638.478C37.7146 640.235 34.8654 640.235 33.108 638.478Z" fill="url(#paint38_linear_104_99)"/>
<path d="M171.347 568.828C173.105 567.071 175.954 567.071 177.711 568.828C179.469 570.585 179.469 573.435 177.711 575.192L114.425 638.478C112.668 640.235 109.819 640.235 108.061 638.478C106.304 636.721 106.304 633.871 108.061 632.114L171.347 568.828Z" fill="url(#paint39_linear_104_99)"/>
<path d="M680.111 15.517C678.353 13.7597 678.353 10.9104 680.111 9.15307L685.768 3.49621C687.525 1.73885 690.374 1.73885 692.132 3.49621C693.889 5.25357 693.889 8.10281 692.132 9.86017L686.475 15.517C684.717 17.2744 681.868 17.2744 680.111 15.517Z" fill="url(#paint40_linear_104_99)"/>
<path d="M157.559 557.161C159.316 555.403 162.165 555.403 163.923 557.161C165.68 558.918 165.68 561.767 163.923 563.525L88.9694 638.478C87.2121 640.235 84.3628 640.235 82.6055 638.478C80.8481 636.721 80.8481 633.871 82.6055 632.114L157.559 557.161Z" fill="url(#paint41_linear_104_99)"/>
<path d="M815.875 13.3958C814.118 15.1532 811.268 15.1532 809.511 13.3958C807.754 11.6384 807.754 8.78919 809.511 7.03183L813.047 3.4963C814.804 1.73894 817.653 1.73894 819.411 3.4963C821.168 5.25366 821.168 8.1029 819.411 9.86026L815.875 13.3958Z" fill="url(#paint42_linear_104_99)"/>
<path d="M739.508 77.0354C737.75 78.7928 737.75 81.642 739.508 83.3994C741.265 85.1567 744.114 85.1567 745.872 83.3994L803.147 26.1237C804.905 24.3664 804.905 21.5171 803.147 19.7598C801.39 18.0024 798.541 18.0024 796.783 19.7598L739.508 77.0354Z" fill="url(#paint43_linear_104_99)"/>
<path d="M184.429 638.478C182.671 636.721 182.671 633.872 184.429 632.114L250.19 566.353C251.947 564.596 254.796 564.596 256.554 566.353C258.311 568.111 258.311 570.96 256.554 572.717L190.793 638.478C189.035 640.236 186.186 640.236 184.429 638.478Z" fill="url(#paint44_linear_104_99)"/>
<path d="M764.256 77.7425C762.499 79.4999 762.499 82.3491 764.256 84.1065C766.014 85.8638 768.863 85.8638 770.62 84.1065L798.905 55.8222C800.662 54.0648 800.662 51.2156 798.905 49.4582C797.147 47.7009 794.298 47.7009 792.541 49.4582L764.256 77.7425Z" fill="url(#paint45_linear_104_99)"/>
<path d="M870.322 9.86026C872.08 8.1029 872.08 5.25366 870.322 3.4963C868.565 1.73894 865.716 1.73894 863.958 3.4963L235.34 632.114C233.583 633.872 233.583 636.721 235.34 638.478C237.098 640.236 239.947 640.236 241.704 638.478L870.322 9.86026Z" fill="url(#paint46_linear_104_99)"/>
<path d="M805.268 36.7303C803.511 38.4877 803.511 41.3369 805.268 43.0943C807.026 44.8516 809.875 44.8516 811.632 43.0943L844.867 9.86026C846.624 8.1029 846.624 5.25366 844.867 3.4963C843.109 1.73894 840.26 1.73894 838.503 3.4963L805.268 36.7303Z" fill="url(#paint47_linear_104_99)"/>
<path d="M3.21817 566.545C1.46081 564.787 1.46081 561.938 3.21816 560.181L18.9658 544.433C20.7231 542.676 23.5724 542.676 25.3297 544.433C27.0871 546.19 27.0871 549.04 25.3297 550.797L9.58213 566.545C7.82477 568.302 4.97553 568.302 3.21817 566.545Z" fill="url(#paint48_linear_104_99)"/>
<path d="M3.40942 591.809C5.16678 593.566 8.01603 593.566 9.77338 591.809L51.4927 550.09C53.25 548.332 53.25 545.483 51.4927 543.726C49.7353 541.969 46.8861 541.969 45.1287 543.726L3.40942 585.445C1.65206 587.203 1.65206 590.052 3.40942 591.809Z" fill="url(#paint49_linear_104_99)"/>
<path d="M38.7648 537.362C40.5221 535.605 40.5221 532.755 38.7648 530.998C37.0074 529.241 34.1582 529.241 32.4008 530.998L31.6937 531.705C29.9363 533.462 29.9363 536.312 31.6937 538.069C33.4511 539.826 36.3003 539.826 38.0577 538.069L38.7648 537.362Z" fill="url(#paint50_linear_104_99)"/>
<path d="M475.757 43.0943C477.514 44.8516 477.514 47.7009 475.757 49.4582L475.05 50.1653C473.292 51.9227 470.443 51.9227 468.686 50.1653C466.928 48.408 466.928 45.5587 468.686 43.8014L469.393 43.0943C471.15 41.3369 473.999 41.3369 475.757 43.0943Z" fill="url(#paint51_linear_104_99)"/>
<path d="M515.355 3.4963C513.597 1.73894 510.748 1.73894 508.991 3.4963L482.121 30.3664C480.363 32.1237 480.363 34.973 482.121 36.7303C483.878 38.4877 486.727 38.4877 488.485 36.7303L515.355 9.86026C517.112 8.1029 517.112 5.25366 515.355 3.4963Z" fill="url(#paint52_linear_104_99)"/>
<path d="M67.4026 521.452C69.16 519.695 72.0092 519.695 73.7665 521.452C75.5239 523.209 75.5239 526.059 73.7665 527.816L64.2206 537.362C62.4632 539.119 59.614 539.119 57.8566 537.362C56.0993 535.605 56.0993 532.755 57.8566 530.998L67.4026 521.452Z" fill="url(#paint53_linear_104_99)"/>
<path d="M264.332 584.031C262.574 582.274 262.574 579.424 264.332 577.667L275.646 566.353C277.403 564.596 280.252 564.596 282.009 566.353C283.767 568.111 283.767 570.96 282.009 572.717L270.696 584.031C268.938 585.788 266.089 585.788 264.332 584.031Z" fill="url(#paint54_linear_104_99)"/>
<path d="M251.604 590.395C253.361 588.638 256.211 588.638 257.968 590.395C259.725 592.152 259.725 595.002 257.968 596.759L216.249 638.478C214.491 640.236 211.642 640.236 209.885 638.478C208.127 636.721 208.127 633.872 209.885 632.114L251.604 590.395Z" fill="url(#paint55_linear_104_99)"/>
<path d="M3.40942 540.897C1.65206 539.14 1.65206 536.291 3.40942 534.533L76.9485 460.994C78.7059 459.237 81.5551 459.237 83.3125 460.994C85.0698 462.752 85.0699 465.601 83.3125 467.358L9.77338 540.897C8.01603 542.655 5.16678 542.655 3.40942 540.897Z" fill="url(#paint56_linear_104_99)"/>
<path d="M661.726 3.49621C663.483 1.73885 666.333 1.73885 668.09 3.49621C669.847 5.25357 669.847 8.10281 668.09 9.86017L649.705 28.2449C647.948 30.0023 645.099 30.0023 643.341 28.2449C641.584 26.4876 641.584 23.6383 643.341 21.881L661.726 3.49621Z" fill="url(#paint57_linear_104_99)"/>
<path d="M209.885 3.4963C208.127 1.73894 205.278 1.73894 203.521 3.4963L3.40942 203.608C1.65206 205.365 1.65206 208.214 3.40942 209.971C5.16678 211.729 8.01603 211.729 9.77338 209.971L209.885 9.86026C211.642 8.1029 211.642 5.25366 209.885 3.4963Z" fill="url(#paint58_linear_104_99)"/>
<path d="M337.164 3.4963C335.406 1.73894 332.557 1.73893 330.8 3.49629L64.9277 269.368C63.1704 271.126 63.1704 273.975 64.9277 275.732C66.6851 277.49 69.5343 277.49 71.2917 275.732L337.164 9.86026C338.921 8.1029 338.921 5.25366 337.164 3.4963Z" fill="url(#paint59_linear_104_99)"/>
<path d="M35.9363 279.268C34.179 277.511 34.179 274.661 35.9363 272.904L305.344 3.49629C307.101 1.73893 309.951 1.73894 311.708 3.4963C313.465 5.25366 313.465 8.1029 311.708 9.86026L42.3003 279.268C40.5429 281.025 37.6937 281.025 35.9363 279.268Z" fill="url(#paint60_linear_104_99)"/>
<path d="M3.40942 489.986C1.65206 488.228 1.65206 485.379 3.40942 483.622L483.535 3.49631C485.292 1.73895 488.142 1.73894 489.899 3.4963C491.656 5.25366 491.656 8.1029 489.899 9.86026L9.77339 489.986C8.01603 491.743 5.16678 491.743 3.40942 489.986Z" fill="url(#paint61_linear_104_99)"/>
<path d="M3.40942 509.078C1.65206 510.835 1.65206 513.684 3.40942 515.442C5.16678 517.199 8.01603 517.199 9.77339 515.442L462.322 62.8933C464.079 61.1359 464.079 58.2867 462.322 56.5293C460.564 54.7719 457.715 54.7719 455.958 56.5293L3.40942 509.078Z" fill="url(#paint62_linear_104_99)"/>
<path d="M45.1947 518.204C43.4373 519.961 43.4373 522.811 45.1947 524.568C46.952 526.325 49.8013 526.325 51.5587 524.568L566.266 9.86026C568.024 8.1029 568.024 5.25366 566.266 3.4963C564.509 1.73894 561.66 1.73894 559.902 3.4963L45.1947 518.204Z" fill="url(#paint63_linear_104_99)"/>
<path d="M9.7734 617.265C8.01604 619.022 5.16678 619.022 3.40942 617.265C1.65206 615.508 1.65206 612.658 3.40942 610.901L610.814 3.49631C612.571 1.73895 615.421 1.73894 617.178 3.4963C618.935 5.25366 618.935 8.1029 617.178 9.86026L9.7734 617.265Z" fill="url(#paint64_linear_104_99)"/>
<path d="M636.27 3.4963C638.027 1.73894 640.877 1.73894 642.634 3.4963C644.391 5.25366 644.391 8.1029 642.634 9.86026L14.016 638.478C12.2587 640.236 9.40942 640.236 7.65206 638.478C5.89471 636.721 5.89471 633.872 7.65207 632.114L636.27 3.4963Z" fill="url(#paint65_linear_104_99)"/>
<path d="M71.9989 599.587C70.2415 597.83 70.2415 594.981 71.9989 593.223L630.613 34.6089C632.371 32.8516 635.22 32.8516 636.977 34.6089C638.735 36.3663 638.735 39.2155 636.977 40.9729L78.3628 599.587C76.6055 601.345 73.7562 601.345 71.9989 599.587Z" fill="url(#paint66_linear_104_99)"/>
<path d="M57.1496 638.478C58.907 640.235 61.7562 640.235 63.5136 638.478L673.747 28.2449C675.504 26.4876 675.504 23.6383 673.747 21.881C671.989 20.1236 669.14 20.1236 667.383 21.881L57.1496 632.114C55.3923 633.871 55.3923 636.721 57.1496 638.478Z" fill="url(#paint67_linear_104_99)"/>
<path d="M762.135 3.4963C763.892 1.73894 766.742 1.73894 768.499 3.4963C770.256 5.25366 770.256 8.1029 768.499 9.86026L139.881 638.478C138.124 640.236 135.274 640.236 133.517 638.478C131.76 636.721 131.76 633.872 133.517 632.114L762.135 3.4963Z" fill="url(#paint68_linear_104_99)"/>
<path d="M793.955 3.4963C792.197 1.73894 789.348 1.73894 787.591 3.4963L158.973 632.114C157.216 633.872 157.216 636.721 158.973 638.478C160.73 640.236 163.58 640.236 165.337 638.478L793.955 9.86026C795.712 8.1029 795.712 5.25366 793.955 3.4963Z" fill="url(#paint69_linear_104_99)"/>
</g>
<g filter="url(#filter1_d_104_99)">
<path d="M76 100C76 87.2974 86.2975 77 99 77H1182C1194.7 77 1205 87.2975 1205 100V540C1205 552.703 1194.7 563 1182 563H99C86.2975 563 76 552.703 76 540V100Z" fill="white"/>
</g>
<g filter="url(#filter2_di_104_99)">
<path d="M1118.97 498.838L1110.67 487.024H1102.37L1115.01 504.502L1118.9 499.781C1119.12 499.513 1119.15 499.134 1118.97 498.838Z" fill="#747778"/>
</g>
<g filter="url(#filter3_d_104_99)">
<path d="M1122.89 505.488C1123.13 505.202 1123.15 504.791 1122.93 504.487L1118.83 498.649C1119 498.945 1118.97 499.324 1118.75 499.592L1105.36 515.841H1114.23L1122.89 505.488Z" fill="#747778"/>
</g>
<g filter="url(#filter4_di_104_99)">
<path d="M1084.7 509.214L1093 521.028H1101.3L1088.67 503.549L1084.78 508.271C1084.56 508.539 1084.53 508.918 1084.7 509.214Z" fill="#747778"/>
</g>
<g filter="url(#filter5_d_104_99)">
<path d="M1080.83 502.636C1080.59 502.921 1080.57 503.332 1080.79 503.636L1084.9 509.475C1084.72 509.178 1084.75 508.8 1084.97 508.531L1098.36 492.282H1089.49L1080.83 502.636Z" fill="#747778"/>
</g>
<g filter="url(#filter6_d_104_99)">
<path d="M1123.74 520.353C1123.74 520.577 1123.66 520.776 1123.51 520.948C1123.36 521.12 1123.16 521.206 1122.92 521.206C1122.66 521.206 1122.46 521.12 1122.31 520.948C1122.16 520.776 1122.09 520.577 1122.09 520.353C1122.09 520.121 1122.16 519.919 1122.31 519.747C1122.46 519.575 1122.66 519.489 1122.92 519.489C1123.16 519.489 1123.36 519.575 1123.51 519.747C1123.66 519.919 1123.74 520.121 1123.74 520.353Z" fill="#747778"/>
<path fill-rule="evenodd" clip-rule="evenodd" d="M1130.88 518.479C1130.88 518.875 1130.82 519.242 1130.72 519.578C1130.62 519.908 1130.48 520.192 1130.28 520.431C1130.09 520.671 1129.86 520.858 1129.59 520.993C1129.31 521.127 1128.99 521.195 1128.64 521.195C1128.37 521.195 1128.12 521.161 1127.91 521.094C1127.7 521.026 1127.55 520.951 1127.44 520.869V522.923H1126.51V516.021C1126.71 515.961 1126.97 515.901 1127.28 515.841C1127.61 515.781 1127.97 515.752 1128.38 515.752C1128.76 515.752 1129.1 515.815 1129.41 515.942C1129.71 516.069 1129.97 516.253 1130.19 516.492C1130.41 516.724 1130.58 517.008 1130.7 517.345C1130.82 517.682 1130.88 518.06 1130.88 518.479ZM1129.92 518.479C1129.92 517.873 1129.78 517.405 1129.5 517.076C1129.21 516.739 1128.84 516.571 1128.38 516.571C1128.13 516.571 1127.93 516.582 1127.78 516.604C1127.64 516.627 1127.52 516.653 1127.44 516.683V519.971C1127.55 520.069 1127.7 520.158 1127.9 520.241C1128.1 520.323 1128.31 520.364 1128.53 520.364C1128.78 520.364 1128.99 520.315 1129.16 520.218C1129.34 520.121 1129.48 519.99 1129.6 519.825C1129.71 519.653 1129.79 519.455 1129.84 519.231C1129.9 518.999 1129.92 518.748 1129.92 518.479Z" fill="#747778"/>
<path d="M1132.53 521.071V516.144C1133.29 515.882 1134.06 515.752 1134.84 515.752C1135.08 515.752 1135.31 515.763 1135.52 515.785C1135.74 515.8 1135.98 515.838 1136.24 515.897L1136.07 516.717C1135.83 516.649 1135.62 516.608 1135.43 516.593C1135.25 516.571 1135.06 516.56 1134.84 516.56C1134.38 516.56 1133.92 516.623 1133.45 516.75V521.071H1132.53Z" fill="#747778"/>
<path fill-rule="evenodd" clip-rule="evenodd" d="M1142.1 518.467C1142.1 518.879 1142.04 519.253 1141.92 519.59C1141.81 519.919 1141.65 520.203 1141.44 520.443C1141.23 520.682 1140.98 520.869 1140.69 521.004C1140.4 521.131 1140.08 521.195 1139.73 521.195C1139.4 521.195 1139.08 521.131 1138.79 521.004C1138.51 520.869 1138.26 520.682 1138.05 520.443C1137.84 520.203 1137.67 519.919 1137.56 519.59C1137.44 519.253 1137.39 518.879 1137.39 518.467C1137.39 518.056 1137.44 517.682 1137.56 517.345C1137.67 517.008 1137.84 516.724 1138.05 516.492C1138.26 516.253 1138.51 516.069 1138.79 515.942C1139.08 515.808 1139.4 515.74 1139.73 515.74C1140.08 515.74 1140.4 515.808 1140.69 515.942C1140.98 516.069 1141.23 516.253 1141.44 516.492C1141.65 516.724 1141.81 517.008 1141.92 517.345C1142.04 517.682 1142.1 518.056 1142.1 518.467ZM1141.15 518.467C1141.15 517.876 1141.02 517.412 1140.77 517.076C1140.51 516.732 1140.17 516.56 1139.73 516.56C1139.31 516.56 1138.97 516.732 1138.71 517.076C1138.46 517.412 1138.34 517.876 1138.34 518.467C1138.34 519.051 1138.46 519.515 1138.71 519.859C1138.97 520.196 1139.31 520.364 1139.73 520.364C1140.17 520.364 1140.51 520.196 1140.77 519.859C1141.02 519.515 1141.15 519.051 1141.15 518.467Z" fill="#747778"/>
<path d="M1146.01 515.056C1145.81 515.056 1145.64 514.988 1145.5 514.854C1145.36 514.719 1145.29 514.536 1145.29 514.304C1145.29 514.072 1145.36 513.889 1145.5 513.754C1145.64 513.619 1145.81 513.552 1146.01 513.552C1146.21 513.552 1146.38 513.619 1146.51 513.754C1146.65 513.889 1146.73 514.072 1146.73 514.304C1146.73 514.536 1146.65 514.719 1146.51 514.854C1146.38 514.988 1146.21 515.056 1146.01 515.056Z" fill="#747778"/>
<path d="M1143.83 516.638V515.864H1146.86V521.015C1146.86 521.374 1146.81 521.677 1146.7 521.924C1146.61 522.178 1146.47 522.384 1146.3 522.541C1146.13 522.698 1145.94 522.811 1145.72 522.878C1145.5 522.945 1145.27 522.979 1145.02 522.979C1144.74 522.979 1144.45 522.949 1144.16 522.889C1143.87 522.829 1143.6 522.736 1143.35 522.609L1143.63 521.823C1143.81 521.913 1144.02 521.988 1144.25 522.047C1144.48 522.115 1144.7 522.148 1144.91 522.148C1145.21 522.148 1145.45 522.07 1145.65 521.913C1145.84 521.763 1145.94 521.468 1145.94 521.026V516.638H1143.83Z" fill="#747778"/>
<path fill-rule="evenodd" clip-rule="evenodd" d="M1151.07 515.74C1151.77 515.74 1152.32 515.961 1152.7 516.402C1153.08 516.836 1153.27 517.499 1153.27 518.389V518.714H1149.54C1149.58 519.253 1149.76 519.665 1150.07 519.949C1150.39 520.226 1150.84 520.364 1151.42 520.364C1151.75 520.364 1152.03 520.338 1152.26 520.285C1152.49 520.233 1152.67 520.177 1152.79 520.117L1152.91 520.903C1152.8 520.963 1152.6 521.026 1152.3 521.094C1152.01 521.161 1151.68 521.195 1151.32 521.195C1150.87 521.195 1150.47 521.127 1150.13 520.993C1149.79 520.85 1149.51 520.66 1149.29 520.42C1149.06 520.181 1148.89 519.896 1148.78 519.567C1148.67 519.231 1148.61 518.868 1148.61 518.479C1148.61 518.015 1148.68 517.611 1148.82 517.267C1148.97 516.922 1149.15 516.638 1149.39 516.414C1149.62 516.189 1149.88 516.021 1150.17 515.909C1150.46 515.796 1150.76 515.74 1151.07 515.74ZM1152.33 517.962C1152.33 517.521 1152.21 517.173 1151.98 516.919C1151.75 516.657 1151.44 516.526 1151.06 516.526C1150.84 516.526 1150.64 516.567 1150.46 516.649C1150.29 516.732 1150.14 516.84 1150.01 516.975C1149.89 517.109 1149.79 517.263 1149.71 517.435C1149.64 517.607 1149.59 517.783 1149.57 517.962H1152.33Z" fill="#747778"/>
<path d="M1154.33 518.479C1154.33 518.007 1154.4 517.6 1154.55 517.255C1154.7 516.911 1154.91 516.627 1155.17 516.402C1155.43 516.178 1155.73 516.013 1156.08 515.909C1156.43 515.796 1156.8 515.74 1157.2 515.74C1157.45 515.74 1157.7 515.759 1157.95 515.796C1158.21 515.826 1158.47 515.886 1158.76 515.976L1158.55 516.773C1158.3 516.683 1158.07 516.627 1157.86 516.604C1157.66 516.575 1157.45 516.56 1157.24 516.56C1156.97 516.56 1156.72 516.597 1156.48 516.672C1156.24 516.739 1156.03 516.851 1155.85 517.008C1155.68 517.158 1155.54 517.356 1155.44 517.603C1155.33 517.843 1155.28 518.134 1155.28 518.479C1155.28 518.808 1155.33 519.092 1155.43 519.332C1155.52 519.564 1155.66 519.758 1155.83 519.915C1156.01 520.065 1156.22 520.177 1156.47 520.252C1156.72 520.327 1156.99 520.364 1157.29 520.364C1157.53 520.364 1157.76 520.353 1157.97 520.33C1158.2 520.3 1158.44 520.241 1158.7 520.151L1158.84 520.925C1158.58 521.022 1158.31 521.09 1158.04 521.127C1157.77 521.172 1157.48 521.195 1157.17 521.195C1156.75 521.195 1156.36 521.138 1156.01 521.026C1155.66 520.906 1155.37 520.734 1155.11 520.51C1154.86 520.285 1154.67 520.005 1154.53 519.668C1154.39 519.324 1154.33 518.928 1154.33 518.479Z" fill="#747778"/>
<path d="M1162.12 515.864H1164.32V516.638H1162.12V519.062C1162.12 519.324 1162.13 519.537 1162.17 519.702C1162.21 519.867 1162.27 520.001 1162.35 520.106C1162.44 520.203 1162.55 520.271 1162.69 520.308C1162.82 520.345 1162.99 520.364 1163.18 520.364C1163.45 520.364 1163.67 520.342 1163.83 520.297C1164 520.252 1164.15 520.192 1164.3 520.117L1164.44 520.903C1164.33 520.948 1164.17 521.007 1163.93 521.082C1163.71 521.157 1163.43 521.195 1163.09 521.195C1162.7 521.195 1162.38 521.15 1162.14 521.06C1161.89 520.97 1161.7 520.835 1161.55 520.656C1161.42 520.476 1161.33 520.256 1161.27 519.994C1161.22 519.724 1161.19 519.414 1161.19 519.062V516.638H1160.09V515.864H1161.19V514.405L1162.12 514.248V515.864Z" fill="#747778"/>
</g>
<g filter="url(#filter7_d_104_99)">
<path d="M1052.64 493.867V495.635H1048.35V509.498H1046.28V495.635H1041.98V493.867H1052.64Z" fill="#747778"/>
<path fill-rule="evenodd" clip-rule="evenodd" d="M1059.87 497.503C1060.74 497.503 1061.47 497.613 1062.06 497.832C1062.67 498.05 1063.16 498.353 1063.53 498.741C1063.9 499.128 1064.16 499.599 1064.31 500.155C1064.46 500.71 1064.54 501.316 1064.54 501.973V509.296C1064.05 509.38 1063.4 509.481 1062.59 509.599C1061.8 509.716 1060.99 509.775 1060.14 509.775C1059.5 509.775 1058.88 509.716 1058.28 509.599C1057.67 509.498 1057.13 509.312 1056.66 509.043C1056.19 508.757 1055.81 508.37 1055.52 507.882C1055.24 507.393 1055.09 506.77 1055.09 506.013C1055.09 505.34 1055.24 504.776 1055.52 504.321C1055.83 503.85 1056.2 503.471 1056.66 503.185C1057.13 502.899 1057.66 502.697 1058.25 502.579C1058.86 502.444 1059.46 502.377 1060.07 502.377C1060.89 502.377 1061.7 502.469 1062.49 502.655V502.074C1062.49 501.72 1062.45 501.384 1062.37 501.064C1062.3 500.727 1062.16 500.424 1061.94 500.155C1061.74 499.885 1061.45 499.675 1061.08 499.523C1060.72 499.355 1060.26 499.271 1059.69 499.271C1058.97 499.271 1058.33 499.321 1057.8 499.422C1057.26 499.523 1056.84 499.624 1056.56 499.725L1056.31 498.008C1056.59 497.874 1057.06 497.756 1057.72 497.655C1058.39 497.554 1059.11 497.503 1059.87 497.503ZM1060.07 508.008C1060.59 508.008 1061.05 507.991 1061.46 507.957C1061.88 507.924 1062.22 507.882 1062.49 507.831V504.346C1062.22 504.262 1061.9 504.195 1061.51 504.144C1061.14 504.094 1060.74 504.069 1060.32 504.069C1059.93 504.069 1059.55 504.102 1059.18 504.17C1058.81 504.22 1058.49 504.321 1058.2 504.473C1057.91 504.624 1057.68 504.826 1057.49 505.079C1057.31 505.314 1057.21 505.617 1057.21 505.988C1057.21 506.745 1057.47 507.276 1057.97 507.579C1058.49 507.865 1059.19 508.008 1060.07 508.008Z" fill="#747778"/>
<path fill-rule="evenodd" clip-rule="evenodd" d="M1074.99 508.412C1074.76 508.547 1074.4 508.69 1073.91 508.841C1073.42 508.993 1072.86 509.068 1072.22 509.068C1071.53 509.068 1070.88 508.959 1070.27 508.74C1069.68 508.504 1069.16 508.159 1068.71 507.705C1068.27 507.233 1067.91 506.644 1067.65 505.937C1067.39 505.213 1067.27 504.363 1067.27 503.387C1067.27 502.528 1067.38 501.746 1067.62 501.038C1067.87 500.315 1068.23 499.692 1068.68 499.17C1069.15 498.648 1069.72 498.244 1070.4 497.958C1071.07 497.655 1071.84 497.503 1072.7 497.503C1073.71 497.503 1074.57 497.579 1075.27 497.731C1076 497.865 1076.6 498 1077.09 498.135V508.589C1077.09 510.407 1076.63 511.72 1075.7 512.528C1074.79 513.336 1073.41 513.74 1071.56 513.74C1070.8 513.74 1070.11 513.681 1069.49 513.563C1068.88 513.445 1068.34 513.302 1067.87 513.134L1068.25 511.29C1068.69 511.476 1069.19 511.627 1069.74 511.745C1070.31 511.863 1070.94 511.922 1071.61 511.922C1072.82 511.922 1073.69 511.678 1074.21 511.189C1074.73 510.701 1074.99 509.91 1074.99 508.816V508.412ZM1074.99 499.624C1074.79 499.557 1074.51 499.498 1074.16 499.448C1073.81 499.38 1073.33 499.347 1072.72 499.347C1071.64 499.347 1070.82 499.717 1070.25 500.458C1069.69 501.198 1069.41 502.183 1069.41 503.412C1069.41 504.085 1069.49 504.666 1069.64 505.154C1069.81 505.626 1070.03 506.021 1070.3 506.341C1070.58 506.644 1070.9 506.872 1071.26 507.023C1071.61 507.158 1071.99 507.225 1072.39 507.225C1072.92 507.225 1073.4 507.149 1073.86 506.998C1074.33 506.846 1074.71 506.669 1074.99 506.467V499.624Z" fill="#747778"/>
</g>
</g>
<path fill-rule="evenodd" clip-rule="evenodd" d="M703.856 316.348V313.972H693.956C692.828 313.3 691.58 312.796 690.212 312.46C688.844 312.1 687.368 311.92 685.784 311.92C683.768 311.92 681.908 312.196 680.204 312.748C678.524 313.3 677.072 314.092 675.848 315.124C674.624 316.132 673.664 317.368 672.968 318.832C672.296 320.272 671.96 321.88 671.96 323.656C671.96 325.864 672.464 327.808 673.472 329.488C674.48 331.144 675.884 332.476 677.684 333.484C676.916 333.868 676.244 334.312 675.668 334.816C675.092 335.32 674.6 335.86 674.192 336.436C673.808 336.988 673.52 337.552 673.328 338.128C673.136 338.68 673.04 339.22 673.04 339.748C673.04 341.116 673.352 342.208 673.976 343.024C674.624 343.816 675.488 344.452 676.568 344.932C674.6 345.676 673.052 346.672 671.924 347.92C670.796 349.168 670.232 350.692 670.232 352.492C670.232 353.764 670.556 354.976 671.204 356.128C671.876 357.304 672.872 358.336 674.192 359.224C675.512 360.112 677.168 360.82 679.16 361.348C681.152 361.876 683.48 362.14 686.144 362.14C688.808 362.14 691.196 361.792 693.308 361.096C695.444 360.424 697.244 359.512 698.708 358.36C700.172 357.232 701.288 355.936 702.056 354.472C702.848 353.008 703.244 351.496 703.244 349.936C703.244 348.256 702.884 346.888 702.164 345.832C701.468 344.776 700.544 343.948 699.392 343.348C698.24 342.748 696.92 342.316 695.432 342.052C693.968 341.788 692.456 341.608 690.896 341.512C689.36 341.392 687.848 341.308 686.36 341.26C684.896 341.212 683.588 341.092 682.436 340.9C681.284 340.708 680.348 340.396 679.628 339.964C678.932 339.508 678.584 338.848 678.584 337.984C678.584 337.432 678.788 336.892 679.196 336.364C679.604 335.812 680.192 335.296 680.96 334.816C682.472 335.224 684.08 335.428 685.784 335.428C687.752 335.428 689.576 335.152 691.256 334.6C692.936 334.048 694.376 333.256 695.576 332.224C696.776 331.192 697.712 329.956 698.384 328.516C699.08 327.052 699.428 325.432 699.428 323.656C699.428 321.736 699.02 319.984 698.204 318.4L702.344 317.86C703.352 317.644 703.856 317.14 703.856 316.348ZM689.204 330.64C688.22 331 687.08 331.18 685.784 331.18C684.488 331.18 683.348 331 682.364 330.64C681.38 330.28 680.552 329.776 679.88 329.128C679.208 328.48 678.692 327.712 678.332 326.824C677.996 325.912 677.828 324.916 677.828 323.836C677.828 321.604 678.5 319.828 679.844 318.508C681.212 317.188 683.192 316.528 685.784 316.528C688.352 316.528 690.308 317.188 691.652 318.508C693.02 319.828 693.704 321.604 693.704 323.836C693.704 324.916 693.536 325.912 693.2 326.824C692.864 327.712 692.36 328.48 691.688 329.128C691.016 329.776 690.188 330.28 689.204 330.64ZM696.584 348.82C697.088 349.372 697.34 350.092 697.34 350.98C697.34 351.94 697.088 352.816 696.584 353.608C696.08 354.4 695.348 355.084 694.388 355.66C693.452 356.236 692.3 356.68 690.932 356.992C689.564 357.304 688.016 357.46 686.288 357.46C684.512 357.46 682.964 357.304 681.644 356.992C680.348 356.704 679.268 356.296 678.404 355.768C677.54 355.264 676.892 354.652 676.46 353.932C676.052 353.236 675.848 352.48 675.848 351.664C675.848 350.392 676.268 349.288 677.108 348.352C677.972 347.392 679.076 346.6 680.42 345.976C681.62 346.144 682.868 346.264 684.164 346.336C684.901 346.377 685.63 346.418 686.352 346.459C686.899 346.49 687.442 346.521 687.98 346.552C689.252 346.624 690.452 346.732 691.58 346.876C692.708 346.996 693.692 347.212 694.532 347.524C695.396 347.836 696.08 348.268 696.584 348.82Z" fill="#0D1117"/>
<path d="M720.814 314.008C719.134 315.4 717.718 317.344 716.566 319.84L716.134 314.296C716.038 313.648 715.858 313.192 715.594 312.928C715.33 312.664 714.85 312.532 714.154 312.532H710.482V349H716.926V325.96C717.382 324.712 717.886 323.608 718.438 322.648C719.014 321.664 719.65 320.848 720.346 320.2C721.066 319.528 721.87 319.024 722.758 318.688C723.67 318.352 724.702 318.184 725.854 318.184C726.67 318.184 727.402 318.256 728.05 318.4C728.698 318.544 729.19 318.616 729.526 318.616C730.102 318.616 730.462 318.316 730.606 317.716L731.074 312.928C730.522 312.568 729.886 312.304 729.166 312.136C728.47 311.968 727.738 311.884 726.97 311.884C724.546 311.884 722.494 312.592 720.814 314.008Z" fill="#0D1117"/>
<path fill-rule="evenodd" clip-rule="evenodd" d="M741.726 313.324C739.398 314.284 737.226 315.736 735.21 317.68L736.362 319.732C736.578 320.068 736.842 320.356 737.154 320.596C737.466 320.812 737.838 320.92 738.27 320.92C738.822 320.92 739.374 320.728 739.926 320.344C740.502 319.936 741.174 319.492 741.942 319.012C742.734 318.508 743.658 318.064 744.714 317.68C745.794 317.272 747.126 317.068 748.71 317.068C751.062 317.068 752.85 317.8 754.074 319.264C755.298 320.704 755.91 322.84 755.91 325.672V328.516C751.758 328.612 748.254 328.996 745.398 329.668C742.542 330.316 740.226 331.156 738.45 332.188C736.674 333.22 735.39 334.408 734.598 335.752C733.806 337.072 733.41 338.452 733.41 339.892C733.41 341.548 733.674 342.988 734.202 344.212C734.754 345.412 735.486 346.408 736.398 347.2C737.334 347.992 738.426 348.592 739.674 349C740.922 349.384 742.254 349.576 743.67 349.576C745.062 349.576 746.322 349.444 747.45 349.18C748.602 348.94 749.682 348.592 750.69 348.136C751.698 347.656 752.658 347.08 753.57 346.408C754.482 345.712 755.418 344.92 756.378 344.032L757.098 347.488C757.29 348.088 757.554 348.496 757.89 348.712C758.226 348.904 758.706 349 759.33 349H762.174V325.672C762.174 323.632 761.898 321.76 761.346 320.056C760.794 318.352 759.978 316.9 758.898 315.7C757.818 314.5 756.486 313.564 754.902 312.892C753.318 312.22 751.506 311.884 749.466 311.884C746.634 311.884 744.054 312.364 741.726 313.324ZM748.35 333.304C750.438 332.92 752.958 332.68 755.91 332.584V340.144C755.19 340.912 754.446 341.596 753.678 342.196C752.934 342.796 752.142 343.312 751.302 343.744C750.486 344.176 749.61 344.512 748.674 344.752C747.738 344.968 746.706 345.076 745.578 345.076C744.738 345.076 743.946 344.98 743.202 344.788C742.482 344.572 741.846 344.248 741.294 343.816C740.766 343.36 740.346 342.784 740.034 342.088C739.722 341.392 739.566 340.564 739.566 339.604C739.566 338.596 739.854 337.684 740.43 336.868C741.03 336.052 741.978 335.344 743.274 334.744C744.594 334.144 746.286 333.664 748.35 333.304Z" fill="#0D1117"/>
<path fill-rule="evenodd" clip-rule="evenodd" d="M783.383 313.612C781.367 314.764 779.591 316.288 778.055 318.184L777.479 313.864C777.263 312.976 776.699 312.532 775.787 312.532H771.935V361.348H778.379V345.22C779.603 346.564 781.007 347.62 782.591 348.388C784.199 349.132 786.119 349.504 788.351 349.504C790.799 349.504 792.995 349.024 794.939 348.064C796.907 347.08 798.563 345.748 799.907 344.068C801.275 342.364 802.319 340.36 803.039 338.056C803.759 335.728 804.119 333.22 804.119 330.532C804.119 327.508 803.795 324.832 803.147 322.504C802.499 320.176 801.575 318.232 800.375 316.672C799.175 315.088 797.723 313.9 796.019 313.108C794.315 312.292 792.407 311.884 790.295 311.884C787.703 311.884 785.399 312.46 783.383 313.612ZM782.231 343.564C780.839 342.916 779.555 341.8 778.379 340.216V322.576C779.699 320.824 781.139 319.468 782.699 318.508C784.283 317.548 786.119 317.068 788.207 317.068C789.671 317.068 790.979 317.32 792.131 317.824C793.283 318.328 794.255 319.132 795.047 320.236C795.839 321.316 796.439 322.708 796.847 324.412C797.279 326.116 797.495 328.156 797.495 330.532C797.495 335.02 796.583 338.476 794.759 340.9C792.935 343.324 790.319 344.536 786.911 344.536C785.183 344.536 783.623 344.212 782.231 343.564Z" fill="#0D1117"/>
<path d="M823.923 313.432C822.027 314.416 820.299 315.736 818.739 317.392V295.972H812.295V349H818.739V322.144C820.131 320.584 821.643 319.348 823.275 318.436C824.931 317.524 826.707 317.068 828.603 317.068C831.171 317.068 833.079 317.836 834.327 319.372C835.599 320.884 836.235 323.02 836.235 325.78V349H842.679V325.78C842.679 323.716 842.415 321.832 841.887 320.128C841.359 318.424 840.579 316.972 839.547 315.772C838.539 314.548 837.267 313.612 835.731 312.964C834.219 312.292 832.467 311.956 830.475 311.956C828.003 311.956 825.819 312.448 823.923 313.432Z" fill="#0D1117"/>
<path d="M859.211 349V312.532H852.803V349H859.211Z" fill="#0D1117"/>
<path d="M860.183 302.848C860.447 302.296 860.579 301.708 860.579 301.084C860.579 300.46 860.447 299.872 860.183 299.32C859.943 298.744 859.607 298.252 859.175 297.844C858.767 297.412 858.275 297.076 857.699 296.836C857.147 296.596 856.559 296.476 855.935 296.476C855.311 296.476 854.723 296.596 854.171 296.836C853.643 297.076 853.175 297.412 852.767 297.844C852.359 298.252 852.035 298.744 851.795 299.32C851.555 299.872 851.435 300.46 851.435 301.084C851.435 301.708 851.555 302.296 851.795 302.848C852.035 303.376 852.359 303.856 852.767 304.288C853.175 304.696 853.643 305.02 854.171 305.26C854.723 305.5 855.311 305.62 855.935 305.62C856.559 305.62 857.147 305.5 857.699 305.26C858.275 305.02 858.767 304.696 859.175 304.288C859.607 303.856 859.943 303.376 860.183 302.848Z" fill="#0D1117"/>
<path d="M894.544 319.624C894.736 319.48 894.928 319.276 895.12 319.012L896.812 316.708C895.3 315.196 893.56 314.032 891.592 313.216C889.648 312.376 887.392 311.956 884.824 311.956C882.064 311.956 879.616 312.424 877.48 313.36C875.368 314.296 873.58 315.604 872.116 317.284C870.676 318.94 869.572 320.92 868.804 323.224C868.06 325.528 867.688 328.036 867.688 330.748C867.688 333.724 868.096 336.376 868.912 338.704C869.728 341.032 870.856 343 872.296 344.608C873.736 346.192 875.428 347.404 877.372 348.244C879.34 349.084 881.464 349.504 883.744 349.504C885.064 349.504 886.36 349.396 887.632 349.18C888.904 348.964 890.116 348.628 891.268 348.172C892.444 347.692 893.536 347.104 894.544 346.408C895.552 345.712 896.452 344.872 897.244 343.888L895.444 341.548C895.156 341.14 894.748 340.936 894.22 340.936C893.788 340.936 893.344 341.128 892.888 341.512C892.456 341.872 891.904 342.28 891.232 342.736C890.584 343.192 889.756 343.612 888.748 343.996C887.74 344.356 886.456 344.536 884.896 344.536C883.264 344.536 881.788 344.236 880.468 343.636C879.172 343.012 878.056 342.124 877.12 340.972C876.208 339.796 875.5 338.356 874.996 336.652C874.492 334.924 874.24 332.956 874.24 330.748C874.24 328.636 874.468 326.728 874.924 325.024C875.404 323.32 876.1 321.868 877.012 320.668C877.948 319.468 879.1 318.556 880.468 317.932C881.836 317.284 883.42 316.96 885.22 316.96C886.564 316.96 887.692 317.116 888.604 317.428C889.54 317.716 890.32 318.04 890.944 318.4C891.592 318.76 892.132 319.096 892.564 319.408C892.996 319.696 893.392 319.84 893.752 319.84C894.088 319.84 894.352 319.768 894.544 319.624Z" fill="#0D1117"/>
<path fill-rule="evenodd" clip-rule="evenodd" d="M928.125 313.324C925.797 314.284 923.625 315.736 921.609 317.68L922.761 319.732C922.977 320.068 923.241 320.356 923.553 320.596C923.865 320.812 924.237 320.92 924.669 320.92C925.221 320.92 925.773 320.728 926.325 320.344C926.901 319.936 927.573 319.492 928.341 319.012C929.133 318.508 930.057 318.064 931.113 317.68C932.193 317.272 933.525 317.068 935.109 317.068C937.461 317.068 939.249 317.8 940.473 319.264C941.697 320.704 942.309 322.84 942.309 325.672V328.516C938.157 328.612 934.653 328.996 931.797 329.668C928.941 330.316 926.625 331.156 924.849 332.188C923.073 333.22 921.789 334.408 920.997 335.752C920.205 337.072 919.809 338.452 919.809 339.892C919.809 341.548 920.073 342.988 920.601 344.212C921.153 345.412 921.885 346.408 922.797 347.2C923.733 347.992 924.825 348.592 926.073 349C927.321 349.384 928.653 349.576 930.069 349.576C931.461 349.576 932.721 349.444 933.849 349.18C935.001 348.94 936.081 348.592 937.089 348.136C938.097 347.656 939.057 347.08 939.969 346.408C940.881 345.712 941.817 344.92 942.777 344.032L943.497 347.488C943.689 348.088 943.953 348.496 944.289 348.712C944.625 348.904 945.105 349 945.729 349H948.573V325.672C948.573 323.632 948.297 321.76 947.745 320.056C947.193 318.352 946.377 316.9 945.297 315.7C944.217 314.5 942.885 313.564 941.301 312.892C939.717 312.22 937.905 311.884 935.865 311.884C933.033 311.884 930.453 312.364 928.125 313.324ZM934.749 333.304C936.837 332.92 939.357 332.68 942.309 332.584V340.144C941.589 340.912 940.845 341.596 940.077 342.196C939.333 342.796 938.541 343.312 937.701 343.744C936.885 344.176 936.009 344.512 935.073 344.752C934.137 344.968 933.105 345.076 931.977 345.076C931.137 345.076 930.345 344.98 929.601 344.788C928.881 344.572 928.245 344.248 927.693 343.816C927.165 343.36 926.745 342.784 926.433 342.088C926.121 341.392 925.965 340.564 925.965 339.604C925.965 338.596 926.253 337.684 926.829 336.868C927.429 336.052 928.377 335.344 929.673 334.744C930.993 334.144 932.685 333.664 934.749 333.304Z" fill="#0D1117"/>
<path d="M978.242 319.336C978.842 319.336 979.286 319.072 979.574 318.544L981.014 316.204C979.622 314.884 977.966 313.852 976.046 313.108C974.15 312.34 972.002 311.956 969.602 311.956C967.538 311.956 965.702 312.244 964.094 312.82C962.486 313.396 961.13 314.176 960.026 315.16C958.922 316.12 958.082 317.248 957.506 318.544C956.93 319.816 956.642 321.148 956.642 322.54C956.642 324.1 956.906 325.432 957.434 326.536C957.986 327.616 958.706 328.528 959.594 329.272C960.482 330.016 961.49 330.64 962.618 331.144C963.77 331.624 964.934 332.056 966.11 332.44C966.951 332.709 967.775 332.973 968.581 333.23L969.602 333.556C970.754 333.892 971.774 334.3 972.662 334.78C973.55 335.236 974.258 335.8 974.786 336.472C975.338 337.12 975.614 337.948 975.614 338.956C975.614 339.772 975.458 340.54 975.146 341.26C974.858 341.98 974.402 342.616 973.778 343.168C973.154 343.72 972.374 344.164 971.438 344.5C970.502 344.812 969.41 344.968 968.162 344.968C966.698 344.968 965.474 344.8 964.49 344.464C963.506 344.128 962.666 343.756 961.97 343.348C961.298 342.94 960.722 342.568 960.242 342.232C959.762 341.896 959.306 341.728 958.874 341.728C958.466 341.728 958.13 341.812 957.866 341.98C957.602 342.148 957.374 342.388 957.182 342.7L955.67 345.148C957.11 346.444 958.862 347.512 960.926 348.352C962.99 349.168 965.294 349.576 967.838 349.576C970.07 349.576 972.038 349.276 973.742 348.676C975.446 348.076 976.886 347.26 978.062 346.228C979.238 345.172 980.126 343.936 980.726 342.52C981.326 341.08 981.626 339.52 981.626 337.84C981.626 336.376 981.35 335.128 980.798 334.096C980.27 333.04 979.562 332.152 978.674 331.432C977.786 330.712 976.778 330.112 975.65 329.632C974.522 329.152 973.358 328.72 972.158 328.336C970.982 327.928 969.83 327.556 968.702 327.22C967.574 326.86 966.566 326.452 965.678 325.996C964.79 325.54 964.07 325 963.518 324.376C962.99 323.752 962.726 322.972 962.726 322.036C962.726 321.292 962.882 320.608 963.194 319.984C963.53 319.336 963.998 318.772 964.598 318.292C965.222 317.812 965.966 317.44 966.83 317.176C967.694 316.888 968.666 316.744 969.746 316.744C970.994 316.744 972.074 316.888 972.986 317.176C973.898 317.44 974.678 317.74 975.326 318.076C975.998 318.388 976.562 318.676 977.018 318.94C977.474 319.204 977.882 319.336 978.242 319.336Z" fill="#0D1117"/>
<path d="M1009.39 319.336C1009.99 319.336 1010.43 319.072 1010.72 318.544L1012.16 316.204C1010.77 314.884 1009.11 313.852 1007.19 313.108C1005.3 312.34 1003.15 311.956 1000.75 311.956C998.686 311.956 996.85 312.244 995.242 312.82C993.634 313.396 992.278 314.176 991.174 315.16C990.07 316.12 989.23 317.248 988.654 318.544C988.078 319.816 987.79 321.148 987.79 322.54C987.79 324.1 988.054 325.432 988.582 326.536C989.134 327.616 989.854 328.528 990.742 329.272C991.63 330.016 992.638 330.64 993.766 331.144C994.918 331.624 996.082 332.056 997.258 332.44C998.458 332.824 999.622 333.196 1000.75 333.556C1001.9 333.892 1002.92 334.3 1003.81 334.78C1004.7 335.236 1005.41 335.8 1005.93 336.472C1006.49 337.12 1006.76 337.948 1006.76 338.956C1006.76 339.772 1006.61 340.54 1006.29 341.26C1006.01 341.98 1005.55 342.616 1004.93 343.168C1004.3 343.72 1003.52 344.164 1002.59 344.5C1001.65 344.812 1000.56 344.968 999.31 344.968C997.846 344.968 996.622 344.8 995.638 344.464C994.654 344.128 993.814 343.756 993.118 343.348C992.446 342.94 991.87 342.568 991.39 342.232C990.91 341.896 990.454 341.728 990.022 341.728C989.614 341.728 989.278 341.812 989.014 341.98C988.75 342.148 988.522 342.388 988.33 342.7L986.818 345.148C988.258 346.444 990.01 347.512 992.074 348.352C994.138 349.168 996.442 349.576 998.986 349.576C1001.22 349.576 1003.19 349.276 1004.89 348.676C1006.59 348.076 1008.03 347.26 1009.21 346.228C1010.39 345.172 1011.27 343.936 1011.87 342.52C1012.47 341.08 1012.77 339.52 1012.77 337.84C1012.77 336.376 1012.5 335.128 1011.95 334.096C1011.42 333.04 1010.71 332.152 1009.82 331.432C1008.93 330.712 1007.93 330.112 1006.8 329.632C1005.67 329.152 1004.51 328.72 1003.31 328.336C1002.13 327.928 1000.98 327.556 999.85 327.22C998.722 326.86 997.714 326.452 996.826 325.996C995.938 325.54 995.218 325 994.666 324.376C994.138 323.752 993.874 322.972 993.874 322.036C993.874 321.292 994.03 320.608 994.342 319.984C994.678 319.336 995.146 318.772 995.746 318.292C996.37 317.812 997.114 317.44 997.978 317.176C998.842 316.888 999.814 316.744 1000.89 316.744C1002.14 316.744 1003.22 316.888 1004.13 317.176C1005.05 317.44 1005.83 317.74 1006.47 318.076C1007.15 318.388 1007.71 318.676 1008.17 318.94C1008.62 319.204 1009.03 319.336 1009.39 319.336Z" fill="#0D1117"/>
<path fill-rule="evenodd" clip-rule="evenodd" d="M1047.38 346.408C1048.48 345.688 1049.43 344.848 1050.22 343.888L1048.42 341.548C1048.13 341.14 1047.73 340.936 1047.2 340.936C1046.79 340.936 1046.3 341.128 1045.72 341.512C1045.17 341.872 1044.47 342.268 1043.63 342.7C1042.79 343.132 1041.79 343.54 1040.61 343.924C1039.46 344.284 1038.08 344.464 1036.47 344.464C1034.74 344.464 1033.18 344.188 1031.79 343.636C1030.4 343.06 1029.2 342.208 1028.19 341.08C1027.18 339.928 1026.39 338.5 1025.81 336.796C1025.26 335.092 1024.95 333.088 1024.88 330.784H1049.25C1049.85 330.784 1050.26 330.616 1050.47 330.28C1050.69 329.944 1050.8 329.272 1050.8 328.264C1050.8 325.672 1050.41 323.368 1049.65 321.352C1048.88 319.312 1047.81 317.608 1046.44 316.24C1045.1 314.848 1043.49 313.792 1041.62 313.072C1039.77 312.328 1037.75 311.956 1035.57 311.956C1032.93 311.956 1030.55 312.424 1028.44 313.36C1026.33 314.272 1024.54 315.544 1023.08 317.176C1021.61 318.784 1020.49 320.692 1019.69 322.9C1018.93 325.108 1018.54 327.484 1018.54 330.028C1018.54 333.172 1018.97 335.956 1019.84 338.38C1020.7 340.804 1021.9 342.844 1023.44 344.5C1025 346.132 1026.83 347.38 1028.95 348.244C1031.08 349.084 1033.41 349.504 1035.93 349.504C1037.25 349.504 1038.58 349.384 1039.93 349.144C1041.27 348.928 1042.57 348.592 1043.81 348.136C1045.09 347.68 1046.27 347.104 1047.38 346.408ZM1044.39 322.72C1044.82 323.944 1045.04 325.3 1045.04 326.788H1025.09C1025.53 323.62 1026.63 321.148 1028.41 319.372C1030.21 317.572 1032.64 316.672 1035.71 316.672C1037.18 316.672 1038.49 316.924 1039.64 317.428C1040.79 317.908 1041.76 318.604 1042.55 319.516C1043.37 320.404 1043.98 321.472 1044.39 322.72Z" fill="#0D1117"/>
<path d="M1062.92 347.164C1064.48 348.772 1066.7 349.576 1069.58 349.576C1071.24 349.576 1072.85 349.288 1074.41 348.712C1075.97 348.112 1077.3 347.296 1078.4 346.264L1076.53 343.204C1076.27 342.796 1075.97 342.592 1075.63 342.592C1075.44 342.592 1075.21 342.688 1074.95 342.88C1074.71 343.048 1074.41 343.24 1074.05 343.456C1073.69 343.672 1073.26 343.876 1072.75 344.068C1072.27 344.236 1071.7 344.32 1071.02 344.32C1069.85 344.32 1068.89 343.948 1068.14 343.204C1067.4 342.46 1067.03 341.32 1067.03 339.784V317.896H1077.58V313.252H1067.03V300.688H1063.79C1063.38 300.688 1063.04 300.808 1062.78 301.048C1062.54 301.264 1062.38 301.552 1062.31 301.912L1060.84 313.18L1054.86 313.936V316.492C1054.86 316.972 1054.99 317.332 1055.26 317.572C1055.52 317.788 1055.84 317.896 1056.23 317.896H1060.62V340.216C1060.62 343.24 1061.39 345.556 1062.92 347.164Z" fill="#0D1117"/>
<path d="M1104.1 319.336C1104.7 319.336 1105.15 319.072 1105.43 318.544L1106.87 316.204C1105.48 314.884 1103.83 313.852 1101.91 313.108C1100.01 312.34 1097.86 311.956 1095.46 311.956C1093.4 311.956 1091.56 312.244 1089.95 312.82C1088.35 313.396 1086.99 314.176 1085.89 315.16C1084.78 316.12 1083.94 317.248 1083.37 318.544C1082.79 319.816 1082.5 321.148 1082.5 322.54C1082.5 324.1 1082.77 325.432 1083.29 326.536C1083.85 327.616 1084.57 328.528 1085.45 329.272C1086.34 330.016 1087.35 330.64 1088.48 331.144C1089.63 331.624 1090.79 332.056 1091.97 332.44C1093.17 332.824 1094.33 333.196 1095.46 333.556C1096.61 333.892 1097.63 334.3 1098.52 334.78C1099.41 335.236 1100.12 335.8 1100.65 336.472C1101.2 337.12 1101.47 337.948 1101.47 338.956C1101.47 339.772 1101.32 340.54 1101.01 341.26C1100.72 341.98 1100.26 342.616 1099.64 343.168C1099.01 343.72 1098.23 344.164 1097.3 344.5C1096.36 344.812 1095.27 344.968 1094.02 344.968C1092.56 344.968 1091.33 344.8 1090.35 344.464C1089.37 344.128 1088.53 343.756 1087.83 343.348C1087.16 342.94 1086.58 342.568 1086.1 342.232C1085.62 341.896 1085.17 341.728 1084.73 341.728C1084.33 341.728 1083.99 341.812 1083.73 341.98C1083.46 342.148 1083.23 342.388 1083.04 342.7L1081.53 345.148C1082.97 346.444 1084.72 347.512 1086.79 348.352C1088.85 349.168 1091.15 349.576 1093.7 349.576C1095.93 349.576 1097.9 349.276 1099.6 348.676C1101.31 348.076 1102.75 347.26 1103.92 346.228C1105.1 345.172 1105.99 343.936 1106.59 342.52C1107.19 341.08 1107.49 339.52 1107.49 337.84C1107.49 336.376 1107.21 335.128 1106.66 334.096C1106.13 333.04 1105.42 332.152 1104.53 331.432C1103.65 330.712 1102.64 330.112 1101.51 329.632C1100.38 329.152 1099.22 328.72 1098.02 328.336C1096.84 327.928 1095.69 327.556 1094.56 327.22C1093.43 326.86 1092.43 326.452 1091.54 325.996C1090.65 325.54 1089.93 325 1089.38 324.376C1088.85 323.752 1088.59 322.972 1088.59 322.036C1088.59 321.292 1088.74 320.608 1089.05 319.984C1089.39 319.336 1089.86 318.772 1090.46 318.292C1091.08 317.812 1091.83 317.44 1092.69 317.176C1093.55 316.888 1094.53 316.744 1095.61 316.744C1096.85 316.744 1097.93 316.888 1098.85 317.176C1099.76 317.44 1100.54 317.74 1101.19 318.076C1101.86 318.388 1102.42 318.676 1102.88 318.94C1103.33 319.204 1103.74 319.336 1104.1 319.336Z" fill="#0D1117"/>
<g filter="url(#filter8_d_104_99)">
<path fill-rule="evenodd" clip-rule="evenodd" d="M363.995 443.32L386.586 430.294H409.848C419.433 430.294 425.433 419.909 420.658 411.583L420.255 410.882L498.961 365.503L532.524 424.027C537.317 432.383 549.35 432.383 554.143 424.027L666.324 228.417C671.099 220.091 665.1 209.706 655.515 209.706L431.152 209.706C421.567 209.706 415.567 220.091 420.342 228.417L420.986 229.54L363.995 196.68C355.691 191.892 345.333 197.908 345.333 207.518V280.241L308.476 215.973C303.683 207.617 291.65 207.617 286.857 215.973L174.676 411.583C169.901 419.909 175.9 430.294 185.485 430.294H345.333V432.482C345.333 442.092 355.691 448.108 363.995 443.32ZM360.339 436.946L371.875 430.294H352.667V432.482C352.667 436.448 356.933 438.909 360.339 436.946ZM352.667 422.941H384.628L410.243 408.173L352.667 307.778L352.667 422.941ZM414.3 415.248L413.898 414.547L399.339 422.941H409.848C413.804 422.941 416.259 418.663 414.3 415.248ZM352.667 293.028L416.6 404.507L495.305 359.128L428.254 242.212L360.339 203.054C356.933 201.091 352.667 203.552 352.667 207.518V293.028ZM538.881 420.361L505.318 361.837L559.083 330.838C567.417 326.033 567.417 313.967 559.083 309.162L433.624 236.827L426.7 224.752C424.741 221.337 427.196 217.059 431.152 217.059L655.515 217.059C659.471 217.059 661.926 221.337 659.967 224.752L547.785 420.361C545.813 423.801 540.854 423.801 538.881 420.361ZM555.427 315.536L440.892 249.499L501.662 355.463L555.427 324.464C558.858 322.486 558.858 317.514 555.427 315.536ZM302.119 219.639L345.333 294.991L345.333 422.941L185.485 422.941C181.529 422.941 179.074 418.663 181.033 415.248L293.215 219.639C295.187 216.199 300.146 216.199 302.119 219.639Z" fill="#0D1117"/>
<path fill-rule="evenodd" clip-rule="evenodd" d="M492 411.912C492 422.064 483.792 430.294 473.667 430.294C463.541 430.294 455.333 422.064 455.333 411.912C455.333 401.759 463.541 393.529 473.667 393.529C483.792 393.529 492 401.759 492 411.912ZM484.667 411.912C484.667 418.003 479.742 422.941 473.667 422.941C467.592 422.941 462.667 418.003 462.667 411.912C462.667 405.82 467.592 400.882 473.667 400.882C479.742 400.882 484.667 405.82 484.667 411.912Z" fill="#0D1117"/>
</g>
<defs>
<filter id="filter0_di_104_99" x="-0.0998535" y="-1.82181" width="877.74" height="649.618" filterUnits="userSpaceOnUse" color-interpolation-filters="sRGB">
<feFlood flood-opacity="0" result="BackgroundImageFix"/>
<feColorMatrix in="SourceAlpha" type="matrix" values="0 0 0 0 0 0 0 0 0 0 0 0 0 0 0 0 0 0 127 0" result="hardAlpha"/>
<feOffset dx="2" dy="4"/>
<feGaussianBlur stdDeviation="2"/>
<feColorMatrix type="matrix" values="0 0 0 0 0.0823529 0 0 0 0 0.12549 0 0 0 0 0.168627 0 0 0 0.4 0"/>
<feBlend mode="normal" in2="BackgroundImageFix" result="effect1_dropShadow_104_99"/>
<feBlend mode="normal" in="SourceGraphic" in2="effect1_dropShadow_104_99" result="shape"/>
<feColorMatrix in="SourceAlpha" type="matrix" values="0 0 0 0 0 0 0 0 0 0 0 0 0 0 0 0 0 0 127 0" result="hardAlpha"/>
<feOffset dy="-4"/>
<feGaussianBlur stdDeviation="4"/>
<feComposite in2="hardAlpha" operator="arithmetic" k2="-1" k3="1"/>
<feColorMatrix type="matrix" values="0 0 0 0 0.0666667 0 0 0 0 0.0666667 0 0 0 0 0.0666667 0 0 0 0.3 0"/>
<feBlend mode="normal" in2="shape" result="effect2_innerShadow_104_99"/>
</filter>
<filter id="filter1_d_104_99" x="70" y="73" width="1145" height="502" filterUnits="userSpaceOnUse" color-interpolation-filters="sRGB">
<feFlood flood-opacity="0" result="BackgroundImageFix"/>
<feColorMatrix in="SourceAlpha" type="matrix" values="0 0 0 0 0 0 0 0 0 0 0 0 0 0 0 0 0 0 127 0" result="hardAlpha"/>
<feOffset dx="2" dy="4"/>
<feGaussianBlur stdDeviation="4"/>
<feColorMatrix type="matrix" values="0 0 0 0 0.0823529 0 0 0 0 0.12549 0 0 0 0 0.168627 0 0 0 0.4 0"/>
<feBlend mode="normal" in2="BackgroundImageFix" result="effect1_dropShadow_104_99"/>
<feBlend mode="normal" in="SourceGraphic" in2="effect1_dropShadow_104_99" result="shape"/>
</filter>
<filter id="filter2_di_104_99" x="1096.37" y="475.024" width="26.7151" height="37.4781" filterUnits="userSpaceOnUse" color-interpolation-filters="sRGB">
<feFlood flood-opacity="0" result="BackgroundImageFix"/>
<feColorMatrix in="SourceAlpha" type="matrix" values="0 0 0 0 0 0 0 0 0 0 0 0 0 0 0 0 0 0 127 0" result="hardAlpha"/>
<feOffset dy="4"/>
<feGaussianBlur stdDeviation="2"/>
<feColorMatrix type="matrix" values="0 0 0 0 0 0 0 0 0 0 0 0 0 0 0 0 0 0 0.25 0"/>
<feBlend mode="normal" in2="BackgroundImageFix" result="effect1_dropShadow_104_99"/>
<feBlend mode="normal" in="SourceGraphic" in2="effect1_dropShadow_104_99" result="shape"/>
<feColorMatrix in="SourceAlpha" type="matrix" values="0 0 0 0 0 0 0 0 0 0 0 0 0 0 0 0 0 0 127 0" result="hardAlpha"/>
<feOffset dx="-6" dy="-12"/>
<feGaussianBlur stdDeviation="8"/>
<feComposite in2="hardAlpha" operator="arithmetic" k2="-1" k3="1"/>
<feColorMatrix type="matrix" values="0 0 0 0 0.0666667 0 0 0 0 0.0666667 0 0 0 0 0.0666667 0 0 0 0.3 0"/>
<feBlend mode="hard-light" in2="shape" result="effect2_innerShadow_104_99"/>
</filter>
<filter id="filter3_d_104_99" x="1096.36" y="492.649" width="41.7234" height="41.1922" filterUnits="userSpaceOnUse" color-interpolation-filters="sRGB">
<feFlood flood-opacity="0" result="BackgroundImageFix"/>
<feColorMatrix in="SourceAlpha" type="matrix" values="0 0 0 0 0 0 0 0 0 0 0 0 0 0 0 0 0 0 127 0" result="hardAlpha"/>
<feOffset dx="3" dy="6"/>
<feGaussianBlur stdDeviation="6"/>
<feColorMatrix type="matrix" values="0 0 0 0 0 0 0 0 0 0 0 0 0 0 0 0 0 0 0.35 0"/>
<feBlend mode="normal" in2="BackgroundImageFix" result="effect1_dropShadow_104_99"/>
<feBlend mode="normal" in="SourceGraphic" in2="effect1_dropShadow_104_99" result="shape"/>
</filter>
<filter id="filter4_di_104_99" x="1080.59" y="503.549" width="26.7151" height="29.4781" filterUnits="userSpaceOnUse" color-interpolation-filters="sRGB">
<feFlood flood-opacity="0" result="BackgroundImageFix"/>
<feColorMatrix in="SourceAlpha" type="matrix" values="0 0 0 0 0 0 0 0 0 0 0 0 0 0 0 0 0 0 127 0" result="hardAlpha"/>
<feOffset dy="4"/>
<feGaussianBlur stdDeviation="2"/>
<feColorMatrix type="matrix" values="0 0 0 0 0 0 0 0 0 0 0 0 0 0 0 0 0 0 0.25 0"/>
<feBlend mode="normal" in2="BackgroundImageFix" result="effect1_dropShadow_104_99"/>
<feBlend mode="normal" in="SourceGraphic" in2="effect1_dropShadow_104_99" result="shape"/>
<feColorMatrix in="SourceAlpha" type="matrix" values="0 0 0 0 0 0 0 0 0 0 0 0 0 0 0 0 0 0 127 0" result="hardAlpha"/>
<feOffset dx="6" dy="12"/>
<feGaussianBlur stdDeviation="8"/>
<feComposite in2="hardAlpha" operator="arithmetic" k2="-1" k3="1"/>
<feColorMatrix type="matrix" values="0 0 0 0 0.0666667 0 0 0 0 0.0666667 0 0 0 0 0.0666667 0 0 0 0.3 0"/>
<feBlend mode="hard-light" in2="shape" result="effect2_innerShadow_104_99"/>
</filter>
<filter id="filter5_d_104_99" x="1071.64" y="486.282" width="41.7234" height="41.1923" filterUnits="userSpaceOnUse" color-interpolation-filters="sRGB">
<feFlood flood-opacity="0" result="BackgroundImageFix"/>
<feColorMatrix in="SourceAlpha" type="matrix" values="0 0 0 0 0 0 0 0 0 0 0 0 0 0 0 0 0 0 127 0" result="hardAlpha"/>
<feOffset dx="3" dy="6"/>
<feGaussianBlur stdDeviation="6"/>
<feColorMatrix type="matrix" values="0 0 0 0 0 0 0 0 0 0 0 0 0 0 0 0 0 0 0.35 0"/>
<feBlend mode="normal" in2="BackgroundImageFix" result="effect1_dropShadow_104_99"/>
<feBlend mode="normal" in="SourceGraphic" in2="effect1_dropShadow_104_99" result="shape"/>
</filter>
<filter id="filter6_d_104_99" x="1113.09" y="507.552" width="66.3515" height="33.4271" filterUnits="userSpaceOnUse" color-interpolation-filters="sRGB">
<feFlood flood-opacity="0" result="BackgroundImageFix"/>
<feColorMatrix in="SourceAlpha" type="matrix" values="0 0 0 0 0 0 0 0 0 0 0 0 0 0 0 0 0 0 127 0" result="hardAlpha"/>
<feOffset dx="3" dy="6"/>
<feGaussianBlur stdDeviation="6"/>
<feColorMatrix type="matrix" values="0 0 0 0 0 0 0 0 0 0 0 0 0 0 0 0 0 0 0.35 0"/>
<feBlend mode="normal" in2="BackgroundImageFix" result="effect1_dropShadow_104_99"/>
<feBlend mode="normal" in="SourceGraphic" in2="effect1_dropShadow_104_99" result="shape"/>
</filter>
<filter id="filter7_d_104_99" x="1032.98" y="487.867" width="59.1058" height="43.8727" filterUnits="userSpaceOnUse" color-interpolation-filters="sRGB">
<feFlood flood-opacity="0" result="BackgroundImageFix"/>
<feColorMatrix in="SourceAlpha" type="matrix" values="0 0 0 0 0 0 0 0 0 0 0 0 0 0 0 0 0 0 127 0" result="hardAlpha"/>
<feOffset dx="3" dy="6"/>
<feGaussianBlur stdDeviation="6"/>
<feColorMatrix type="matrix" values="0 0 0 0 0 0 0 0 0 0 0 0 0 0 0 0 0 0 0.35 0"/>
<feBlend mode="normal" in2="BackgroundImageFix" result="effect1_dropShadow_104_99"/>
<feBlend mode="normal" in="SourceGraphic" in2="effect1_dropShadow_104_99" result="shape"/>
</filter>
<filter id="filter8_d_104_99" x="169" y="195" width="503" height="258" filterUnits="userSpaceOnUse" color-interpolation-filters="sRGB">
<feFlood flood-opacity="0" result="BackgroundImageFix"/>
<feColorMatrix in="SourceAlpha" type="matrix" values="0 0 0 0 0 0 0 0 0 0 0 0 0 0 0 0 0 0 127 0" result="hardAlpha"/>
<feOffset dy="4"/>
<feGaussianBlur stdDeviation="2"/>
<feColorMatrix type="matrix" values="0 0 0 0 0 0 0 0 0 0 0 0 0 0 0 0 0 0 0.25 0"/>
<feBlend mode="normal" in2="BackgroundImageFix" result="effect1_dropShadow_104_99"/>
<feBlend mode="normal" in="SourceGraphic" in2="effect1_dropShadow_104_99" result="shape"/>
</filter>
<linearGradient id="paint0_linear_104_99" x1="3.50607" y1="2.17816" x2="816.433" y2="701.934" gradientUnits="userSpaceOnUse">
<stop offset="0.0586318" stop-color="#FF3A75"/>
<stop offset="1" stop-color="#00D1FF"/>
</linearGradient>
<linearGradient id="paint1_linear_104_99" x1="3.50607" y1="2.17816" x2="816.433" y2="701.934" gradientUnits="userSpaceOnUse">
<stop offset="0.0586318" stop-color="#FF3A75"/>
<stop offset="1" stop-color="#00D1FF"/>
</linearGradient>
<linearGradient id="paint2_linear_104_99" x1="3.50607" y1="2.17816" x2="816.433" y2="701.934" gradientUnits="userSpaceOnUse">
<stop offset="0.0586318" stop-color="#FF3A75"/>
<stop offset="1" stop-color="#00D1FF"/>
</linearGradient>
<linearGradient id="paint3_linear_104_99" x1="3.50607" y1="2.17816" x2="816.433" y2="701.934" gradientUnits="userSpaceOnUse">
<stop offset="0.0586318" stop-color="#FF3A75"/>
<stop offset="1" stop-color="#00D1FF"/>
</linearGradient>
<linearGradient id="paint4_linear_104_99" x1="3.50607" y1="2.17816" x2="816.433" y2="701.934" gradientUnits="userSpaceOnUse">
<stop offset="0.0586318" stop-color="#FF3A75"/>
<stop offset="1" stop-color="#00D1FF"/>
</linearGradient>
<linearGradient id="paint5_linear_104_99" x1="3.50607" y1="2.17816" x2="816.433" y2="701.934" gradientUnits="userSpaceOnUse">
<stop offset="0.0586318" stop-color="#FF3A75"/>
<stop offset="1" stop-color="#00D1FF"/>
</linearGradient>
<linearGradient id="paint6_linear_104_99" x1="3.50607" y1="2.17816" x2="816.433" y2="701.934" gradientUnits="userSpaceOnUse">
<stop offset="0.0586318" stop-color="#FF3A75"/>
<stop offset="1" stop-color="#00D1FF"/>
</linearGradient>
<linearGradient id="paint7_linear_104_99" x1="3.50607" y1="2.17816" x2="816.433" y2="701.934" gradientUnits="userSpaceOnUse">
<stop offset="0.0586318" stop-color="#FF3A75"/>
<stop offset="1" stop-color="#00D1FF"/>
</linearGradient>
<linearGradient id="paint8_linear_104_99" x1="3.50607" y1="2.17816" x2="816.433" y2="701.934" gradientUnits="userSpaceOnUse">
<stop offset="0.0586318" stop-color="#FF3A75"/>
<stop offset="1" stop-color="#00D1FF"/>
</linearGradient>
<linearGradient id="paint9_linear_104_99" x1="3.50607" y1="2.17816" x2="816.433" y2="701.934" gradientUnits="userSpaceOnUse">
<stop offset="0.0586318" stop-color="#FF3A75"/>
<stop offset="1" stop-color="#00D1FF"/>
</linearGradient>
<linearGradient id="paint10_linear_104_99" x1="3.50607" y1="2.17816" x2="816.433" y2="701.934" gradientUnits="userSpaceOnUse">
<stop offset="0.0586318" stop-color="#FF3A75"/>
<stop offset="1" stop-color="#00D1FF"/>
</linearGradient>
<linearGradient id="paint11_linear_104_99" x1="3.50607" y1="2.17816" x2="816.433" y2="701.934" gradientUnits="userSpaceOnUse">
<stop offset="0.0586318" stop-color="#FF3A75"/>
<stop offset="1" stop-color="#00D1FF"/>
</linearGradient>
<linearGradient id="paint12_linear_104_99" x1="3.50607" y1="2.17816" x2="816.433" y2="701.934" gradientUnits="userSpaceOnUse">
<stop offset="0.0586318" stop-color="#FF3A75"/>
<stop offset="1" stop-color="#00D1FF"/>
</linearGradient>
<linearGradient id="paint13_linear_104_99" x1="3.50607" y1="2.17816" x2="816.433" y2="701.934" gradientUnits="userSpaceOnUse">
<stop offset="0.0586318" stop-color="#FF3A75"/>
<stop offset="1" stop-color="#00D1FF"/>
</linearGradient>
<linearGradient id="paint14_linear_104_99" x1="3.50607" y1="2.17816" x2="816.433" y2="701.934" gradientUnits="userSpaceOnUse">
<stop offset="0.0586318" stop-color="#FF3A75"/>
<stop offset="1" stop-color="#00D1FF"/>
</linearGradient>
<linearGradient id="paint15_linear_104_99" x1="3.50607" y1="2.17816" x2="816.433" y2="701.934" gradientUnits="userSpaceOnUse">
<stop offset="0.0586318" stop-color="#FF3A75"/>
<stop offset="1" stop-color="#00D1FF"/>
</linearGradient>
<linearGradient id="paint16_linear_104_99" x1="3.50607" y1="2.17816" x2="816.433" y2="701.934" gradientUnits="userSpaceOnUse">
<stop offset="0.0586318" stop-color="#FF3A75"/>
<stop offset="1" stop-color="#00D1FF"/>
</linearGradient>
<linearGradient id="paint17_linear_104_99" x1="3.50607" y1="2.17816" x2="816.433" y2="701.934" gradientUnits="userSpaceOnUse">
<stop offset="0.0586318" stop-color="#FF3A75"/>
<stop offset="1" stop-color="#00D1FF"/>
</linearGradient>
<linearGradient id="paint18_linear_104_99" x1="3.50607" y1="2.17816" x2="816.433" y2="701.934" gradientUnits="userSpaceOnUse">
<stop offset="0.0586318" stop-color="#FF3A75"/>
<stop offset="1" stop-color="#00D1FF"/>
</linearGradient>
<linearGradient id="paint19_linear_104_99" x1="3.50607" y1="2.17816" x2="816.433" y2="701.934" gradientUnits="userSpaceOnUse">
<stop offset="0.0586318" stop-color="#FF3A75"/>
<stop offset="1" stop-color="#00D1FF"/>
</linearGradient>
<linearGradient id="paint20_linear_104_99" x1="3.50607" y1="2.17816" x2="816.433" y2="701.934" gradientUnits="userSpaceOnUse">
<stop offset="0.0586318" stop-color="#FF3A75"/>
<stop offset="1" stop-color="#00D1FF"/>
</linearGradient>
<linearGradient id="paint21_linear_104_99" x1="3.50607" y1="2.17816" x2="816.433" y2="701.934" gradientUnits="userSpaceOnUse">
<stop offset="0.0586318" stop-color="#FF3A75"/>
<stop offset="1" stop-color="#00D1FF"/>
</linearGradient>
<linearGradient id="paint22_linear_104_99" x1="3.50607" y1="2.17816" x2="816.433" y2="701.934" gradientUnits="userSpaceOnUse">
<stop offset="0.0586318" stop-color="#FF3A75"/>
<stop offset="1" stop-color="#00D1FF"/>
</linearGradient>
<linearGradient id="paint23_linear_104_99" x1="3.50607" y1="2.17816" x2="816.433" y2="701.934" gradientUnits="userSpaceOnUse">
<stop offset="0.0586318" stop-color="#FF3A75"/>
<stop offset="1" stop-color="#00D1FF"/>
</linearGradient>
<linearGradient id="paint24_linear_104_99" x1="3.50607" y1="2.17816" x2="816.433" y2="701.934" gradientUnits="userSpaceOnUse">
<stop offset="0.0586318" stop-color="#FF3A75"/>
<stop offset="1" stop-color="#00D1FF"/>
</linearGradient>
<linearGradient id="paint25_linear_104_99" x1="3.50607" y1="2.17816" x2="816.433" y2="701.934" gradientUnits="userSpaceOnUse">
<stop offset="0.0586318" stop-color="#FF3A75"/>
<stop offset="1" stop-color="#00D1FF"/>
</linearGradient>
<linearGradient id="paint26_linear_104_99" x1="3.50607" y1="2.17816" x2="816.433" y2="701.934" gradientUnits="userSpaceOnUse">
<stop offset="0.0586318" stop-color="#FF3A75"/>
<stop offset="1" stop-color="#00D1FF"/>
</linearGradient>
<linearGradient id="paint27_linear_104_99" x1="3.50607" y1="2.17816" x2="816.433" y2="701.934" gradientUnits="userSpaceOnUse">
<stop offset="0.0586318" stop-color="#FF3A75"/>
<stop offset="1" stop-color="#00D1FF"/>
</linearGradient>
<linearGradient id="paint28_linear_104_99" x1="3.50607" y1="2.17816" x2="816.433" y2="701.934" gradientUnits="userSpaceOnUse">
<stop offset="0.0586318" stop-color="#FF3A75"/>
<stop offset="1" stop-color="#00D1FF"/>
</linearGradient>
<linearGradient id="paint29_linear_104_99" x1="3.50607" y1="2.17816" x2="816.433" y2="701.934" gradientUnits="userSpaceOnUse">
<stop offset="0.0586318" stop-color="#FF3A75"/>
<stop offset="1" stop-color="#00D1FF"/>
</linearGradient>
<linearGradient id="paint30_linear_104_99" x1="3.50607" y1="2.17816" x2="816.433" y2="701.934" gradientUnits="userSpaceOnUse">
<stop offset="0.0586318" stop-color="#FF3A75"/>
<stop offset="1" stop-color="#00D1FF"/>
</linearGradient>
<linearGradient id="paint31_linear_104_99" x1="3.50607" y1="2.17816" x2="816.433" y2="701.934" gradientUnits="userSpaceOnUse">
<stop offset="0.0586318" stop-color="#FF3A75"/>
<stop offset="1" stop-color="#00D1FF"/>
</linearGradient>
<linearGradient id="paint32_linear_104_99" x1="3.50607" y1="2.17816" x2="816.433" y2="701.934" gradientUnits="userSpaceOnUse">
<stop offset="0.0586318" stop-color="#FF3A75"/>
<stop offset="1" stop-color="#00D1FF"/>
</linearGradient>
<linearGradient id="paint33_linear_104_99" x1="3.50607" y1="2.17816" x2="816.433" y2="701.934" gradientUnits="userSpaceOnUse">
<stop offset="0.0586318" stop-color="#FF3A75"/>
<stop offset="1" stop-color="#00D1FF"/>
</linearGradient>
<linearGradient id="paint34_linear_104_99" x1="3.50607" y1="2.17816" x2="816.433" y2="701.934" gradientUnits="userSpaceOnUse">
<stop offset="0.0586318" stop-color="#FF3A75"/>
<stop offset="1" stop-color="#00D1FF"/>
</linearGradient>
<linearGradient id="paint35_linear_104_99" x1="3.50607" y1="2.17816" x2="816.433" y2="701.934" gradientUnits="userSpaceOnUse">
<stop offset="0.0586318" stop-color="#FF3A75"/>
<stop offset="1" stop-color="#00D1FF"/>
</linearGradient>
<linearGradient id="paint36_linear_104_99" x1="3.50607" y1="2.17816" x2="816.433" y2="701.934" gradientUnits="userSpaceOnUse">
<stop offset="0.0586318" stop-color="#FF3A75"/>
<stop offset="1" stop-color="#00D1FF"/>
</linearGradient>
<linearGradient id="paint37_linear_104_99" x1="3.50607" y1="2.17816" x2="816.433" y2="701.934" gradientUnits="userSpaceOnUse">
<stop offset="0.0586318" stop-color="#FF3A75"/>
<stop offset="1" stop-color="#00D1FF"/>
</linearGradient>
<linearGradient id="paint38_linear_104_99" x1="3.50607" y1="2.17816" x2="816.433" y2="701.934" gradientUnits="userSpaceOnUse">
<stop offset="0.0586318" stop-color="#FF3A75"/>
<stop offset="1" stop-color="#00D1FF"/>
</linearGradient>
<linearGradient id="paint39_linear_104_99" x1="3.50607" y1="2.17816" x2="816.433" y2="701.934" gradientUnits="userSpaceOnUse">
<stop offset="0.0586318" stop-color="#FF3A75"/>
<stop offset="1" stop-color="#00D1FF"/>
</linearGradient>
<linearGradient id="paint40_linear_104_99" x1="3.50607" y1="2.17816" x2="816.433" y2="701.934" gradientUnits="userSpaceOnUse">
<stop offset="0.0586318" stop-color="#FF3A75"/>
<stop offset="1" stop-color="#00D1FF"/>
</linearGradient>
<linearGradient id="paint41_linear_104_99" x1="3.50607" y1="2.17816" x2="816.433" y2="701.934" gradientUnits="userSpaceOnUse">
<stop offset="0.0586318" stop-color="#FF3A75"/>
<stop offset="1" stop-color="#00D1FF"/>
</linearGradient>
<linearGradient id="paint42_linear_104_99" x1="3.50607" y1="2.17816" x2="816.433" y2="701.934" gradientUnits="userSpaceOnUse">
<stop offset="0.0586318" stop-color="#FF3A75"/>
<stop offset="1" stop-color="#00D1FF"/>
</linearGradient>
<linearGradient id="paint43_linear_104_99" x1="3.50607" y1="2.17816" x2="816.433" y2="701.934" gradientUnits="userSpaceOnUse">
<stop offset="0.0586318" stop-color="#FF3A75"/>
<stop offset="1" stop-color="#00D1FF"/>
</linearGradient>
<linearGradient id="paint44_linear_104_99" x1="3.50607" y1="2.17816" x2="816.433" y2="701.934" gradientUnits="userSpaceOnUse">
<stop offset="0.0586318" stop-color="#FF3A75"/>
<stop offset="1" stop-color="#00D1FF"/>
</linearGradient>
<linearGradient id="paint45_linear_104_99" x1="3.50607" y1="2.17816" x2="816.433" y2="701.934" gradientUnits="userSpaceOnUse">
<stop offset="0.0586318" stop-color="#FF3A75"/>
<stop offset="1" stop-color="#00D1FF"/>
</linearGradient>
<linearGradient id="paint46_linear_104_99" x1="3.50607" y1="2.17816" x2="816.433" y2="701.934" gradientUnits="userSpaceOnUse">
<stop offset="0.0586318" stop-color="#FF3A75"/>
<stop offset="1" stop-color="#00D1FF"/>
</linearGradient>
<linearGradient id="paint47_linear_104_99" x1="3.50607" y1="2.17816" x2="816.433" y2="701.934" gradientUnits="userSpaceOnUse">
<stop offset="0.0586318" stop-color="#FF3A75"/>
<stop offset="1" stop-color="#00D1FF"/>
</linearGradient>
<linearGradient id="paint48_linear_104_99" x1="3.50607" y1="2.17816" x2="816.433" y2="701.934" gradientUnits="userSpaceOnUse">
<stop offset="0.0586318" stop-color="#FF3A75"/>
<stop offset="1" stop-color="#00D1FF"/>
</linearGradient>
<linearGradient id="paint49_linear_104_99" x1="3.50607" y1="2.17816" x2="816.433" y2="701.934" gradientUnits="userSpaceOnUse">
<stop offset="0.0586318" stop-color="#FF3A75"/>
<stop offset="1" stop-color="#00D1FF"/>
</linearGradient>
<linearGradient id="paint50_linear_104_99" x1="3.50607" y1="2.17816" x2="816.433" y2="701.934" gradientUnits="userSpaceOnUse">
<stop offset="0.0586318" stop-color="#FF3A75"/>
<stop offset="1" stop-color="#00D1FF"/>
</linearGradient>
<linearGradient id="paint51_linear_104_99" x1="3.50607" y1="2.17816" x2="816.433" y2="701.934" gradientUnits="userSpaceOnUse">
<stop offset="0.0586318" stop-color="#FF3A75"/>
<stop offset="1" stop-color="#00D1FF"/>
</linearGradient>
<linearGradient id="paint52_linear_104_99" x1="3.50607" y1="2.17816" x2="816.433" y2="701.934" gradientUnits="userSpaceOnUse">
<stop offset="0.0586318" stop-color="#FF3A75"/>
<stop offset="1" stop-color="#00D1FF"/>
</linearGradient>
<linearGradient id="paint53_linear_104_99" x1="3.50607" y1="2.17816" x2="816.433" y2="701.934" gradientUnits="userSpaceOnUse">
<stop offset="0.0586318" stop-color="#FF3A75"/>
<stop offset="1" stop-color="#00D1FF"/>
</linearGradient>
<linearGradient id="paint54_linear_104_99" x1="3.50607" y1="2.17816" x2="816.433" y2="701.934" gradientUnits="userSpaceOnUse">
<stop offset="0.0586318" stop-color="#FF3A75"/>
<stop offset="1" stop-color="#00D1FF"/>
</linearGradient>
<linearGradient id="paint55_linear_104_99" x1="3.50607" y1="2.17816" x2="816.433" y2="701.934" gradientUnits="userSpaceOnUse">
<stop offset="0.0586318" stop-color="#FF3A75"/>
<stop offset="1" stop-color="#00D1FF"/>
</linearGradient>
<linearGradient id="paint56_linear_104_99" x1="3.50607" y1="2.17816" x2="816.433" y2="701.934" gradientUnits="userSpaceOnUse">
<stop offset="0.0586318" stop-color="#FF3A75"/>
<stop offset="1" stop-color="#00D1FF"/>
</linearGradient>
<linearGradient id="paint57_linear_104_99" x1="3.50607" y1="2.17816" x2="816.433" y2="701.934" gradientUnits="userSpaceOnUse">
<stop offset="0.0586318" stop-color="#FF3A75"/>
<stop offset="1" stop-color="#00D1FF"/>
</linearGradient>
<linearGradient id="paint58_linear_104_99" x1="3.50607" y1="2.17816" x2="816.433" y2="701.934" gradientUnits="userSpaceOnUse">
<stop offset="0.0586318" stop-color="#FF3A75"/>
<stop offset="1" stop-color="#00D1FF"/>
</linearGradient>
<linearGradient id="paint59_linear_104_99" x1="3.50607" y1="2.17816" x2="816.433" y2="701.934" gradientUnits="userSpaceOnUse">
<stop offset="0.0586318" stop-color="#FF3A75"/>
<stop offset="1" stop-color="#00D1FF"/>
</linearGradient>
<linearGradient id="paint60_linear_104_99" x1="3.50607" y1="2.17816" x2="816.433" y2="701.934" gradientUnits="userSpaceOnUse">
<stop offset="0.0586318" stop-color="#FF3A75"/>
<stop offset="1" stop-color="#00D1FF"/>
</linearGradient>
<linearGradient id="paint61_linear_104_99" x1="3.50607" y1="2.17816" x2="816.433" y2="701.934" gradientUnits="userSpaceOnUse">
<stop offset="0.0586318" stop-color="#FF3A75"/>
<stop offset="1" stop-color="#00D1FF"/>
</linearGradient>
<linearGradient id="paint62_linear_104_99" x1="3.50607" y1="2.17816" x2="816.433" y2="701.934" gradientUnits="userSpaceOnUse">
<stop offset="0.0586318" stop-color="#FF3A75"/>
<stop offset="1" stop-color="#00D1FF"/>
</linearGradient>
<linearGradient id="paint63_linear_104_99" x1="3.50607" y1="2.17816" x2="816.433" y2="701.934" gradientUnits="userSpaceOnUse">
<stop offset="0.0586318" stop-color="#FF3A75"/>
<stop offset="1" stop-color="#00D1FF"/>
</linearGradient>
<linearGradient id="paint64_linear_104_99" x1="3.50607" y1="2.17816" x2="816.433" y2="701.934" gradientUnits="userSpaceOnUse">
<stop offset="0.0586318" stop-color="#FF3A75"/>
<stop offset="1" stop-color="#00D1FF"/>
</linearGradient>
<linearGradient id="paint65_linear_104_99" x1="3.50607" y1="2.17816" x2="816.433" y2="701.934" gradientUnits="userSpaceOnUse">
<stop offset="0.0586318" stop-color="#FF3A75"/>
<stop offset="1" stop-color="#00D1FF"/>
</linearGradient>
<linearGradient id="paint66_linear_104_99" x1="3.50607" y1="2.17816" x2="816.433" y2="701.934" gradientUnits="userSpaceOnUse">
<stop offset="0.0586318" stop-color="#FF3A75"/>
<stop offset="1" stop-color="#00D1FF"/>
</linearGradient>
<linearGradient id="paint67_linear_104_99" x1="3.50607" y1="2.17816" x2="816.433" y2="701.934" gradientUnits="userSpaceOnUse">
<stop offset="0.0586318" stop-color="#FF3A75"/>
<stop offset="1" stop-color="#00D1FF"/>
</linearGradient>
<linearGradient id="paint68_linear_104_99" x1="3.50607" y1="2.17816" x2="816.433" y2="701.934" gradientUnits="userSpaceOnUse">
<stop offset="0.0586318" stop-color="#FF3A75"/>
<stop offset="1" stop-color="#00D1FF"/>
</linearGradient>
<linearGradient id="paint69_linear_104_99" x1="3.50607" y1="2.17816" x2="816.433" y2="701.934" gradientUnits="userSpaceOnUse">
<stop offset="0.0586318" stop-color="#FF3A75"/>
<stop offset="1" stop-color="#00D1FF"/>
</linearGradient>
<clipPath id="clip0_104_99">
<rect width="1280" height="640" fill="white"/>
</clipPath>
</defs>
</svg>
