<svg width="457" height="287" viewBox="0 0 457 287" fill="none" xmlns="http://www.w3.org/2000/svg">
<rect width="448" height="284.205" transform="translate(9 1)" fill="#2E2E2E"/>
<g filter="url(#filter0_d)">
<path fill-rule="evenodd" clip-rule="evenodd" d="M195.816 31.3525C196.681 30.636 197.79 30.2054 199 30.2054C201.761 30.2054 204 32.4484 204 35.2152C204 35.6082 203.955 35.9906 203.869 36.3574L373.711 106.377C376.608 107.572 379.711 108.186 382.843 108.186H399.185C402.759 108.186 406.308 108.786 409.685 109.961L444.211 121.977C445.546 120.975 447.204 120.382 449 120.382C453.418 120.382 457 123.971 457 128.398C457 132.825 453.418 136.413 449 136.413C445.554 136.413 442.617 134.23 441.491 131.17L412.308 128.837L427 235.107H430V285.205H339.5V250.136L346.5 235.107H358.679L321.193 211.458L150.803 52.0684L18.9827 90.7434C18.7974 92.9776 17.149 94.7956 15 95.2327L15 153.948C15 154.224 14.7761 154.449 14.5 154.449C14.2239 154.449 14 154.224 14 153.948L14 95.3329C11.2386 95.3329 9 93.09 9 90.3231C9 87.5563 11.2386 85.3133 14 85.3133C14.509 85.3133 15.0001 85.3895 15.4628 85.5311L141.469 1.33672C142.1 0.914525 142.916 0.887343 143.575 1.26655L195.816 31.3525ZM394.744 127.434L398.645 127.745L364.84 226.787L342.255 201.328C339.768 198.524 339.554 194.367 341.741 191.322L384.049 132.397C386.502 128.982 390.558 127.099 394.744 127.434ZM189.962 32.6172C191.488 33.4908 191.228 35.7698 189.545 36.2763L158.544 45.6064C157.469 45.9297 156.34 45.3047 156.041 44.2214L146.551 9.8438C146.305 8.95258 147.238 8.19634 148.056 8.62382L189.962 32.6172ZM157.596 50.0753L323.41 184.577C326.794 187.322 331.747 186.852 334.556 183.519L378.065 131.895C385.064 123.59 381.961 110.862 371.929 106.726L203.545 37.307C202.754 39.0293 201.016 40.225 199 40.225C197.702 40.225 196.519 39.7293 195.63 38.9164L157.596 50.0753ZM142.939 11.7964C142.213 9.16415 139.129 8.01513 136.862 9.53212L29.361 81.4822C28.4092 82.1192 29.099 83.5992 30.1975 83.2769L150.856 47.8768C151.904 47.5691 152.512 46.4748 152.221 45.4194L142.939 11.7964ZM420.5 235.107H384.5L405.909 152.877C406.464 150.747 409.543 150.941 409.828 153.124L420.5 235.107ZM394 244.124V240.617H406V244.124H394ZM418.5 240.617H408V244.124H418.5V240.617Z" fill="white"/>
<path d="M14.5 158.457C14.7761 158.457 15 158.681 15 158.958L15 164.969C15 165.246 14.7761 165.47 14.5 165.47C14.2239 165.47 14 165.246 14 164.969L14 158.958C14 158.681 14.2239 158.457 14.5 158.457Z" fill="white"/>
</g>
<defs>
<filter id="filter0_d" x="0" y="0" width="457" height="286.205" filterUnits="userSpaceOnUse" color-interpolation-filters="sRGB">
<feFlood flood-opacity="0" result="BackgroundImageFix"/>
<feColorMatrix in="SourceAlpha" type="matrix" values="0 0 0 0 0 0 0 0 0 0 0 0 0 0 0 0 0 0 127 0"/>
<feOffset dx="-8"/>
<feGaussianBlur stdDeviation="0.5"/>
<feColorMatrix type="matrix" values="0 0 0 0 1 0 0 0 0 1 0 0 0 0 1 0 0 0 0.1 0"/>
<feBlend mode="normal" in2="BackgroundImageFix" result="effect1_dropShadow"/>
<feBlend mode="normal" in="SourceGraphic" in2="effect1_dropShadow" result="shape"/>
</filter>
</defs>
</svg>
